%TF.GenerationSoftware,KiCad,Pcbnew,(6.0.4)*%
%TF.CreationDate,2022-10-13T17:41:33-04:00*%
%TF.ProjectId,ece49022_team44_pcb,65636534-3930-4323-925f-7465616d3434,rev?*%
%TF.SameCoordinates,Original*%
%TF.FileFunction,Legend,Top*%
%TF.FilePolarity,Positive*%
%FSLAX46Y46*%
G04 Gerber Fmt 4.6, Leading zero omitted, Abs format (unit mm)*
G04 Created by KiCad (PCBNEW (6.0.4)) date 2022-10-13 17:41:33*
%MOMM*%
%LPD*%
G01*
G04 APERTURE LIST*
%ADD10C,0.150000*%
%ADD11C,0.120000*%
G04 APERTURE END LIST*
D10*
X91379695Y-23695800D02*
X91284457Y-23648180D01*
X91141600Y-23648180D01*
X90998742Y-23695800D01*
X90903504Y-23791038D01*
X90855885Y-23886276D01*
X90808266Y-24076752D01*
X90808266Y-24219609D01*
X90855885Y-24410085D01*
X90903504Y-24505323D01*
X90998742Y-24600561D01*
X91141600Y-24648180D01*
X91236838Y-24648180D01*
X91379695Y-24600561D01*
X91427314Y-24552942D01*
X91427314Y-24219609D01*
X91236838Y-24219609D01*
X91855885Y-24648180D02*
X91855885Y-23648180D01*
X92427314Y-24648180D01*
X92427314Y-23648180D01*
X92903504Y-24648180D02*
X92903504Y-23648180D01*
X93141600Y-23648180D01*
X93284457Y-23695800D01*
X93379695Y-23791038D01*
X93427314Y-23886276D01*
X93474933Y-24076752D01*
X93474933Y-24219609D01*
X93427314Y-24410085D01*
X93379695Y-24505323D01*
X93284457Y-24600561D01*
X93141600Y-24648180D01*
X92903504Y-24648180D01*
X85658380Y-45052380D02*
X86277428Y-45052380D01*
X85944095Y-45433333D01*
X86086952Y-45433333D01*
X86182190Y-45480952D01*
X86229809Y-45528571D01*
X86277428Y-45623809D01*
X86277428Y-45861904D01*
X86229809Y-45957142D01*
X86182190Y-46004761D01*
X86086952Y-46052380D01*
X85801238Y-46052380D01*
X85706000Y-46004761D01*
X85658380Y-45957142D01*
X86706000Y-45957142D02*
X86753619Y-46004761D01*
X86706000Y-46052380D01*
X86658380Y-46004761D01*
X86706000Y-45957142D01*
X86706000Y-46052380D01*
X87086952Y-45052380D02*
X87706000Y-45052380D01*
X87372666Y-45433333D01*
X87515523Y-45433333D01*
X87610761Y-45480952D01*
X87658380Y-45528571D01*
X87706000Y-45623809D01*
X87706000Y-45861904D01*
X87658380Y-45957142D01*
X87610761Y-46004761D01*
X87515523Y-46052380D01*
X87229809Y-46052380D01*
X87134571Y-46004761D01*
X87086952Y-45957142D01*
X59288457Y-20384161D02*
X59431314Y-20431780D01*
X59669409Y-20431780D01*
X59764647Y-20384161D01*
X59812266Y-20336542D01*
X59859885Y-20241304D01*
X59859885Y-20146066D01*
X59812266Y-20050828D01*
X59764647Y-20003209D01*
X59669409Y-19955590D01*
X59478933Y-19907971D01*
X59383695Y-19860352D01*
X59336076Y-19812733D01*
X59288457Y-19717495D01*
X59288457Y-19622257D01*
X59336076Y-19527019D01*
X59383695Y-19479400D01*
X59478933Y-19431780D01*
X59717028Y-19431780D01*
X59859885Y-19479400D01*
X60288457Y-20431780D02*
X60288457Y-19431780D01*
X60621790Y-20146066D01*
X60955123Y-19431780D01*
X60955123Y-20431780D01*
X61431314Y-20431780D02*
X61431314Y-19431780D01*
X61669409Y-19431780D01*
X61812266Y-19479400D01*
X61907504Y-19574638D01*
X61955123Y-19669876D01*
X62002742Y-19860352D01*
X62002742Y-20003209D01*
X61955123Y-20193685D01*
X61907504Y-20288923D01*
X61812266Y-20384161D01*
X61669409Y-20431780D01*
X61431314Y-20431780D01*
X105950413Y-40142180D02*
X106075413Y-39142180D01*
X106313508Y-39142180D01*
X106450413Y-39189800D01*
X106533746Y-39285038D01*
X106569460Y-39380276D01*
X106593270Y-39570752D01*
X106575413Y-39713609D01*
X106503984Y-39904085D01*
X106444460Y-39999323D01*
X106337317Y-40094561D01*
X106188508Y-40142180D01*
X105950413Y-40142180D01*
X107795651Y-39094561D02*
X106777794Y-40380276D01*
X108581365Y-40046942D02*
X108527794Y-40094561D01*
X108378984Y-40142180D01*
X108283746Y-40142180D01*
X108146841Y-40094561D01*
X108063508Y-39999323D01*
X108027794Y-39904085D01*
X108003984Y-39713609D01*
X108021841Y-39570752D01*
X108093270Y-39380276D01*
X108152794Y-39285038D01*
X108259936Y-39189800D01*
X108408746Y-39142180D01*
X108503984Y-39142180D01*
X108640889Y-39189800D01*
X108682555Y-39237419D01*
X48793452Y-36477380D02*
X48222023Y-36477380D01*
X48507738Y-36477380D02*
X48507738Y-35477380D01*
X48412500Y-35620238D01*
X48317261Y-35715476D01*
X48222023Y-35763095D01*
X49222023Y-36382142D02*
X49269642Y-36429761D01*
X49222023Y-36477380D01*
X49174404Y-36429761D01*
X49222023Y-36382142D01*
X49222023Y-36477380D01*
X49841071Y-35905952D02*
X49745833Y-35858333D01*
X49698214Y-35810714D01*
X49650595Y-35715476D01*
X49650595Y-35667857D01*
X49698214Y-35572619D01*
X49745833Y-35525000D01*
X49841071Y-35477380D01*
X50031547Y-35477380D01*
X50126785Y-35525000D01*
X50174404Y-35572619D01*
X50222023Y-35667857D01*
X50222023Y-35715476D01*
X50174404Y-35810714D01*
X50126785Y-35858333D01*
X50031547Y-35905952D01*
X49841071Y-35905952D01*
X49745833Y-35953571D01*
X49698214Y-36001190D01*
X49650595Y-36096428D01*
X49650595Y-36286904D01*
X49698214Y-36382142D01*
X49745833Y-36429761D01*
X49841071Y-36477380D01*
X50031547Y-36477380D01*
X50126785Y-36429761D01*
X50174404Y-36382142D01*
X50222023Y-36286904D01*
X50222023Y-36096428D01*
X50174404Y-36001190D01*
X50126785Y-35953571D01*
X50031547Y-35905952D01*
X47841071Y-38039761D02*
X47983928Y-38087380D01*
X48222023Y-38087380D01*
X48317261Y-38039761D01*
X48364880Y-37992142D01*
X48412500Y-37896904D01*
X48412500Y-37801666D01*
X48364880Y-37706428D01*
X48317261Y-37658809D01*
X48222023Y-37611190D01*
X48031547Y-37563571D01*
X47936309Y-37515952D01*
X47888690Y-37468333D01*
X47841071Y-37373095D01*
X47841071Y-37277857D01*
X47888690Y-37182619D01*
X47936309Y-37135000D01*
X48031547Y-37087380D01*
X48269642Y-37087380D01*
X48412500Y-37135000D01*
X49412500Y-37992142D02*
X49364880Y-38039761D01*
X49222023Y-38087380D01*
X49126785Y-38087380D01*
X48983928Y-38039761D01*
X48888690Y-37944523D01*
X48841071Y-37849285D01*
X48793452Y-37658809D01*
X48793452Y-37515952D01*
X48841071Y-37325476D01*
X48888690Y-37230238D01*
X48983928Y-37135000D01*
X49126785Y-37087380D01*
X49222023Y-37087380D01*
X49364880Y-37135000D01*
X49412500Y-37182619D01*
X50317261Y-38087380D02*
X49841071Y-38087380D01*
X49841071Y-37087380D01*
X59505923Y-16688580D02*
X60077352Y-16688580D01*
X59791638Y-17688580D02*
X59791638Y-16688580D01*
X60410685Y-17688580D02*
X60410685Y-16688580D01*
X60410685Y-17164771D02*
X60982114Y-17164771D01*
X60982114Y-17688580D02*
X60982114Y-16688580D01*
X61315447Y-16688580D02*
X61886876Y-16688580D01*
X61601161Y-17688580D02*
X61601161Y-16688580D01*
X50797232Y-24777380D02*
X50922232Y-23777380D01*
X51166279Y-24491666D01*
X51588898Y-23777380D01*
X51463898Y-24777380D01*
X51928184Y-24491666D02*
X52404375Y-24491666D01*
X51797232Y-24777380D02*
X52255565Y-23777380D01*
X52463898Y-24777380D01*
X52826994Y-23777380D02*
X53368660Y-24777380D01*
X53493660Y-23777380D02*
X52701994Y-24777380D01*
X50826994Y-26339761D02*
X50963898Y-26387380D01*
X51201994Y-26387380D01*
X51303184Y-26339761D01*
X51356755Y-26292142D01*
X51416279Y-26196904D01*
X51428184Y-26101666D01*
X51392470Y-26006428D01*
X51350803Y-25958809D01*
X51261517Y-25911190D01*
X51076994Y-25863571D01*
X50987708Y-25815952D01*
X50946041Y-25768333D01*
X50910327Y-25673095D01*
X50922232Y-25577857D01*
X50981755Y-25482619D01*
X51035327Y-25435000D01*
X51136517Y-25387380D01*
X51374613Y-25387380D01*
X51511517Y-25435000D01*
X51821041Y-26387380D02*
X51946041Y-25387380D01*
X52184136Y-25387380D01*
X52321041Y-25435000D01*
X52404375Y-25530238D01*
X52440089Y-25625476D01*
X52463898Y-25815952D01*
X52446041Y-25958809D01*
X52374613Y-26149285D01*
X52315089Y-26244523D01*
X52207946Y-26339761D01*
X52059136Y-26387380D01*
X51821041Y-26387380D01*
X52809136Y-26101666D02*
X53285327Y-26101666D01*
X52678184Y-26387380D02*
X53136517Y-25387380D01*
X53344851Y-26387380D01*
X59607523Y-21514580D02*
X60178952Y-21514580D01*
X59893238Y-22514580D02*
X59893238Y-21514580D01*
X60512285Y-22514580D02*
X60512285Y-21514580D01*
X60512285Y-21990771D02*
X61083714Y-21990771D01*
X61083714Y-22514580D02*
X61083714Y-21514580D01*
X61417047Y-21514580D02*
X61988476Y-21514580D01*
X61702761Y-22514580D02*
X61702761Y-21514580D01*
X73591904Y-51736666D02*
X74068095Y-51736666D01*
X73496666Y-52022380D02*
X73830000Y-51022380D01*
X74163333Y-52022380D01*
X74496666Y-52022380D02*
X74496666Y-51022380D01*
X74734761Y-51022380D01*
X74877619Y-51070000D01*
X74972857Y-51165238D01*
X75020476Y-51260476D01*
X75068095Y-51450952D01*
X75068095Y-51593809D01*
X75020476Y-51784285D01*
X74972857Y-51879523D01*
X74877619Y-51974761D01*
X74734761Y-52022380D01*
X74496666Y-52022380D01*
X75449047Y-51736666D02*
X75925238Y-51736666D01*
X75353809Y-52022380D02*
X75687142Y-51022380D01*
X76020476Y-52022380D01*
X76306190Y-51117619D02*
X76353809Y-51070000D01*
X76449047Y-51022380D01*
X76687142Y-51022380D01*
X76782380Y-51070000D01*
X76830000Y-51117619D01*
X76877619Y-51212857D01*
X76877619Y-51308095D01*
X76830000Y-51450952D01*
X76258571Y-52022380D01*
X76877619Y-52022380D01*
X77782380Y-51022380D02*
X77306190Y-51022380D01*
X77258571Y-51498571D01*
X77306190Y-51450952D01*
X77401428Y-51403333D01*
X77639523Y-51403333D01*
X77734761Y-51450952D01*
X77782380Y-51498571D01*
X77830000Y-51593809D01*
X77830000Y-51831904D01*
X77782380Y-51927142D01*
X77734761Y-51974761D01*
X77639523Y-52022380D01*
X77401428Y-52022380D01*
X77306190Y-51974761D01*
X77258571Y-51927142D01*
X78306190Y-52022380D02*
X78496666Y-52022380D01*
X78591904Y-51974761D01*
X78639523Y-51927142D01*
X78734761Y-51784285D01*
X78782380Y-51593809D01*
X78782380Y-51212857D01*
X78734761Y-51117619D01*
X78687142Y-51070000D01*
X78591904Y-51022380D01*
X78401428Y-51022380D01*
X78306190Y-51070000D01*
X78258571Y-51117619D01*
X78210952Y-51212857D01*
X78210952Y-51450952D01*
X78258571Y-51546190D01*
X78306190Y-51593809D01*
X78401428Y-51641428D01*
X78591904Y-51641428D01*
X78687142Y-51593809D01*
X78734761Y-51546190D01*
X78782380Y-51450952D01*
X79972857Y-52022380D02*
X79972857Y-51022380D01*
X80306190Y-51736666D01*
X80639523Y-51022380D01*
X80639523Y-52022380D01*
X81068095Y-51736666D02*
X81544285Y-51736666D01*
X80972857Y-52022380D02*
X81306190Y-51022380D01*
X81639523Y-52022380D01*
X81972857Y-52022380D02*
X81972857Y-51022380D01*
X82449047Y-52022380D02*
X82449047Y-51022380D01*
X83020476Y-52022380D01*
X83020476Y-51022380D01*
X96718095Y-45060000D02*
X96622857Y-45012380D01*
X96480000Y-45012380D01*
X96337142Y-45060000D01*
X96241904Y-45155238D01*
X96194285Y-45250476D01*
X96146666Y-45440952D01*
X96146666Y-45583809D01*
X96194285Y-45774285D01*
X96241904Y-45869523D01*
X96337142Y-45964761D01*
X96480000Y-46012380D01*
X96575238Y-46012380D01*
X96718095Y-45964761D01*
X96765714Y-45917142D01*
X96765714Y-45583809D01*
X96575238Y-45583809D01*
X97194285Y-46012380D02*
X97194285Y-45012380D01*
X97765714Y-46012380D01*
X97765714Y-45012380D01*
X98241904Y-46012380D02*
X98241904Y-45012380D01*
X98480000Y-45012380D01*
X98622857Y-45060000D01*
X98718095Y-45155238D01*
X98765714Y-45250476D01*
X98813333Y-45440952D01*
X98813333Y-45583809D01*
X98765714Y-45774285D01*
X98718095Y-45869523D01*
X98622857Y-45964761D01*
X98480000Y-46012380D01*
X98241904Y-46012380D01*
X63645714Y-16284761D02*
X63788571Y-16332380D01*
X64026666Y-16332380D01*
X64121904Y-16284761D01*
X64169523Y-16237142D01*
X64217142Y-16141904D01*
X64217142Y-16046666D01*
X64169523Y-15951428D01*
X64121904Y-15903809D01*
X64026666Y-15856190D01*
X63836190Y-15808571D01*
X63740952Y-15760952D01*
X63693333Y-15713333D01*
X63645714Y-15618095D01*
X63645714Y-15522857D01*
X63693333Y-15427619D01*
X63740952Y-15380000D01*
X63836190Y-15332380D01*
X64074285Y-15332380D01*
X64217142Y-15380000D01*
X64645714Y-16332380D02*
X64645714Y-15332380D01*
X64883809Y-15332380D01*
X65026666Y-15380000D01*
X65121904Y-15475238D01*
X65169523Y-15570476D01*
X65217142Y-15760952D01*
X65217142Y-15903809D01*
X65169523Y-16094285D01*
X65121904Y-16189523D01*
X65026666Y-16284761D01*
X64883809Y-16332380D01*
X64645714Y-16332380D01*
X65598095Y-16046666D02*
X66074285Y-16046666D01*
X65502857Y-16332380D02*
X65836190Y-15332380D01*
X66169523Y-16332380D01*
X67924457Y-17793361D02*
X68067314Y-17840980D01*
X68305409Y-17840980D01*
X68400647Y-17793361D01*
X68448266Y-17745742D01*
X68495885Y-17650504D01*
X68495885Y-17555266D01*
X68448266Y-17460028D01*
X68400647Y-17412409D01*
X68305409Y-17364790D01*
X68114933Y-17317171D01*
X68019695Y-17269552D01*
X67972076Y-17221933D01*
X67924457Y-17126695D01*
X67924457Y-17031457D01*
X67972076Y-16936219D01*
X68019695Y-16888600D01*
X68114933Y-16840980D01*
X68353028Y-16840980D01*
X68495885Y-16888600D01*
X68924457Y-17840980D02*
X68924457Y-16840980D01*
X69257790Y-17555266D01*
X69591123Y-16840980D01*
X69591123Y-17840980D01*
X70067314Y-17840980D02*
X70067314Y-16840980D01*
X70305409Y-16840980D01*
X70448266Y-16888600D01*
X70543504Y-16983838D01*
X70591123Y-17079076D01*
X70638742Y-17269552D01*
X70638742Y-17412409D01*
X70591123Y-17602885D01*
X70543504Y-17698123D01*
X70448266Y-17793361D01*
X70305409Y-17840980D01*
X70067314Y-17840980D01*
X67837123Y-24257780D02*
X68408552Y-24257780D01*
X68122838Y-25257780D02*
X68122838Y-24257780D01*
X68741885Y-25257780D02*
X68741885Y-24257780D01*
X68741885Y-24733971D02*
X69313314Y-24733971D01*
X69313314Y-25257780D02*
X69313314Y-24257780D01*
X69646647Y-24257780D02*
X70218076Y-24257780D01*
X69932361Y-25257780D02*
X69932361Y-24257780D01*
X67924457Y-22517761D02*
X68067314Y-22565380D01*
X68305409Y-22565380D01*
X68400647Y-22517761D01*
X68448266Y-22470142D01*
X68495885Y-22374904D01*
X68495885Y-22279666D01*
X68448266Y-22184428D01*
X68400647Y-22136809D01*
X68305409Y-22089190D01*
X68114933Y-22041571D01*
X68019695Y-21993952D01*
X67972076Y-21946333D01*
X67924457Y-21851095D01*
X67924457Y-21755857D01*
X67972076Y-21660619D01*
X68019695Y-21613000D01*
X68114933Y-21565380D01*
X68353028Y-21565380D01*
X68495885Y-21613000D01*
X68924457Y-22565380D02*
X68924457Y-21565380D01*
X69257790Y-22279666D01*
X69591123Y-21565380D01*
X69591123Y-22565380D01*
X70067314Y-22565380D02*
X70067314Y-21565380D01*
X70305409Y-21565380D01*
X70448266Y-21613000D01*
X70543504Y-21708238D01*
X70591123Y-21803476D01*
X70638742Y-21993952D01*
X70638742Y-22136809D01*
X70591123Y-22327285D01*
X70543504Y-22422523D01*
X70448266Y-22517761D01*
X70305409Y-22565380D01*
X70067314Y-22565380D01*
X73149613Y-26627380D02*
X73274613Y-25627380D01*
X73215089Y-26103571D02*
X73786517Y-26103571D01*
X73721041Y-26627380D02*
X73846041Y-25627380D01*
X74197232Y-26627380D02*
X74322232Y-25627380D01*
X74560327Y-25627380D01*
X74697232Y-25675000D01*
X74780565Y-25770238D01*
X74816279Y-25865476D01*
X74840089Y-26055952D01*
X74822232Y-26198809D01*
X74750803Y-26389285D01*
X74691279Y-26484523D01*
X74584136Y-26579761D01*
X74435327Y-26627380D01*
X74197232Y-26627380D01*
X75780565Y-26532142D02*
X75726994Y-26579761D01*
X75578184Y-26627380D01*
X75482946Y-26627380D01*
X75346041Y-26579761D01*
X75262708Y-26484523D01*
X75226994Y-26389285D01*
X75203184Y-26198809D01*
X75221041Y-26055952D01*
X75292470Y-25865476D01*
X75351994Y-25770238D01*
X75459136Y-25675000D01*
X75607946Y-25627380D01*
X75703184Y-25627380D01*
X75840089Y-25675000D01*
X75881755Y-25722619D01*
X73250803Y-28189761D02*
X73387708Y-28237380D01*
X73625803Y-28237380D01*
X73726994Y-28189761D01*
X73780565Y-28142142D01*
X73840089Y-28046904D01*
X73851994Y-27951666D01*
X73816279Y-27856428D01*
X73774613Y-27808809D01*
X73685327Y-27761190D01*
X73500803Y-27713571D01*
X73411517Y-27665952D01*
X73369851Y-27618333D01*
X73334136Y-27523095D01*
X73346041Y-27427857D01*
X73405565Y-27332619D01*
X73459136Y-27285000D01*
X73560327Y-27237380D01*
X73798422Y-27237380D01*
X73935327Y-27285000D01*
X74828184Y-28142142D02*
X74774613Y-28189761D01*
X74625803Y-28237380D01*
X74530565Y-28237380D01*
X74393660Y-28189761D01*
X74310327Y-28094523D01*
X74274613Y-27999285D01*
X74250803Y-27808809D01*
X74268660Y-27665952D01*
X74340089Y-27475476D01*
X74399613Y-27380238D01*
X74506755Y-27285000D01*
X74655565Y-27237380D01*
X74750803Y-27237380D01*
X74887708Y-27285000D01*
X74929375Y-27332619D01*
X75721041Y-28237380D02*
X75244851Y-28237380D01*
X75369851Y-27237380D01*
X82002380Y-45102380D02*
X82621428Y-45102380D01*
X82288095Y-45483333D01*
X82430952Y-45483333D01*
X82526190Y-45530952D01*
X82573809Y-45578571D01*
X82621428Y-45673809D01*
X82621428Y-45911904D01*
X82573809Y-46007142D01*
X82526190Y-46054761D01*
X82430952Y-46102380D01*
X82145238Y-46102380D01*
X82050000Y-46054761D01*
X82002380Y-46007142D01*
X83050000Y-46007142D02*
X83097619Y-46054761D01*
X83050000Y-46102380D01*
X83002380Y-46054761D01*
X83050000Y-46007142D01*
X83050000Y-46102380D01*
X83669047Y-45530952D02*
X83573809Y-45483333D01*
X83526190Y-45435714D01*
X83478571Y-45340476D01*
X83478571Y-45292857D01*
X83526190Y-45197619D01*
X83573809Y-45150000D01*
X83669047Y-45102380D01*
X83859523Y-45102380D01*
X83954761Y-45150000D01*
X84002380Y-45197619D01*
X84050000Y-45292857D01*
X84050000Y-45340476D01*
X84002380Y-45435714D01*
X83954761Y-45483333D01*
X83859523Y-45530952D01*
X83669047Y-45530952D01*
X83573809Y-45578571D01*
X83526190Y-45626190D01*
X83478571Y-45721428D01*
X83478571Y-45911904D01*
X83526190Y-46007142D01*
X83573809Y-46054761D01*
X83669047Y-46102380D01*
X83859523Y-46102380D01*
X83954761Y-46054761D01*
X84002380Y-46007142D01*
X84050000Y-45911904D01*
X84050000Y-45721428D01*
X84002380Y-45626190D01*
X83954761Y-45578571D01*
X83859523Y-45530952D01*
X40075595Y-38863571D02*
X40408928Y-38863571D01*
X40551785Y-39387380D02*
X40075595Y-39387380D01*
X40075595Y-38387380D01*
X40551785Y-38387380D01*
X40980357Y-39387380D02*
X40980357Y-38387380D01*
X41551785Y-39387380D01*
X41551785Y-38387380D01*
X41980357Y-39101666D02*
X42456547Y-39101666D01*
X41885119Y-39387380D02*
X42218452Y-38387380D01*
X42551785Y-39387380D01*
X43218452Y-38863571D02*
X43361309Y-38911190D01*
X43408928Y-38958809D01*
X43456547Y-39054047D01*
X43456547Y-39196904D01*
X43408928Y-39292142D01*
X43361309Y-39339761D01*
X43266071Y-39387380D01*
X42885119Y-39387380D01*
X42885119Y-38387380D01*
X43218452Y-38387380D01*
X43313690Y-38435000D01*
X43361309Y-38482619D01*
X43408928Y-38577857D01*
X43408928Y-38673095D01*
X43361309Y-38768333D01*
X43313690Y-38815952D01*
X43218452Y-38863571D01*
X42885119Y-38863571D01*
X44361309Y-39387380D02*
X43885119Y-39387380D01*
X43885119Y-38387380D01*
X44694642Y-38863571D02*
X45027976Y-38863571D01*
X45170833Y-39387380D02*
X44694642Y-39387380D01*
X44694642Y-38387380D01*
X45170833Y-38387380D01*
X40599404Y-40997380D02*
X40027976Y-40997380D01*
X40313690Y-40997380D02*
X40313690Y-39997380D01*
X40218452Y-40140238D01*
X40123214Y-40235476D01*
X40027976Y-40283095D01*
X41027976Y-40902142D02*
X41075595Y-40949761D01*
X41027976Y-40997380D01*
X40980357Y-40949761D01*
X41027976Y-40902142D01*
X41027976Y-40997380D01*
X41647023Y-40425952D02*
X41551785Y-40378333D01*
X41504166Y-40330714D01*
X41456547Y-40235476D01*
X41456547Y-40187857D01*
X41504166Y-40092619D01*
X41551785Y-40045000D01*
X41647023Y-39997380D01*
X41837500Y-39997380D01*
X41932738Y-40045000D01*
X41980357Y-40092619D01*
X42027976Y-40187857D01*
X42027976Y-40235476D01*
X41980357Y-40330714D01*
X41932738Y-40378333D01*
X41837500Y-40425952D01*
X41647023Y-40425952D01*
X41551785Y-40473571D01*
X41504166Y-40521190D01*
X41456547Y-40616428D01*
X41456547Y-40806904D01*
X41504166Y-40902142D01*
X41551785Y-40949761D01*
X41647023Y-40997380D01*
X41837500Y-40997380D01*
X41932738Y-40949761D01*
X41980357Y-40902142D01*
X42027976Y-40806904D01*
X42027976Y-40616428D01*
X41980357Y-40521190D01*
X41932738Y-40473571D01*
X41837500Y-40425952D01*
X42456547Y-40616428D02*
X43218452Y-40616428D01*
X43599404Y-39997380D02*
X44218452Y-39997380D01*
X43885119Y-40378333D01*
X44027976Y-40378333D01*
X44123214Y-40425952D01*
X44170833Y-40473571D01*
X44218452Y-40568809D01*
X44218452Y-40806904D01*
X44170833Y-40902142D01*
X44123214Y-40949761D01*
X44027976Y-40997380D01*
X43742261Y-40997380D01*
X43647023Y-40949761D01*
X43599404Y-40902142D01*
X44647023Y-40902142D02*
X44694642Y-40949761D01*
X44647023Y-40997380D01*
X44599404Y-40949761D01*
X44647023Y-40902142D01*
X44647023Y-40997380D01*
X45027976Y-39997380D02*
X45647023Y-39997380D01*
X45313690Y-40378333D01*
X45456547Y-40378333D01*
X45551785Y-40425952D01*
X45599404Y-40473571D01*
X45647023Y-40568809D01*
X45647023Y-40806904D01*
X45599404Y-40902142D01*
X45551785Y-40949761D01*
X45456547Y-40997380D01*
X45170833Y-40997380D01*
X45075595Y-40949761D01*
X45027976Y-40902142D01*
X96554761Y-20982380D02*
X96554761Y-21791904D01*
X96602380Y-21887142D01*
X96650000Y-21934761D01*
X96745238Y-21982380D01*
X96935714Y-21982380D01*
X97030952Y-21934761D01*
X97078571Y-21887142D01*
X97126190Y-21791904D01*
X97126190Y-20982380D01*
X97554761Y-21696666D02*
X98030952Y-21696666D01*
X97459523Y-21982380D02*
X97792857Y-20982380D01*
X98126190Y-21982380D01*
X99030952Y-21982380D02*
X98697619Y-21506190D01*
X98459523Y-21982380D02*
X98459523Y-20982380D01*
X98840476Y-20982380D01*
X98935714Y-21030000D01*
X98983333Y-21077619D01*
X99030952Y-21172857D01*
X99030952Y-21315714D01*
X98983333Y-21410952D01*
X98935714Y-21458571D01*
X98840476Y-21506190D01*
X98459523Y-21506190D01*
X99316666Y-20982380D02*
X99888095Y-20982380D01*
X99602380Y-21982380D02*
X99602380Y-20982380D01*
X65154285Y-26922380D02*
X65154285Y-25922380D01*
X65154285Y-26398571D02*
X65725714Y-26398571D01*
X65725714Y-26922380D02*
X65725714Y-25922380D01*
X66201904Y-26922380D02*
X66201904Y-25922380D01*
X66440000Y-25922380D01*
X66582857Y-25970000D01*
X66678095Y-26065238D01*
X66725714Y-26160476D01*
X66773333Y-26350952D01*
X66773333Y-26493809D01*
X66725714Y-26684285D01*
X66678095Y-26779523D01*
X66582857Y-26874761D01*
X66440000Y-26922380D01*
X66201904Y-26922380D01*
X67773333Y-26827142D02*
X67725714Y-26874761D01*
X67582857Y-26922380D01*
X67487619Y-26922380D01*
X67344761Y-26874761D01*
X67249523Y-26779523D01*
X67201904Y-26684285D01*
X67154285Y-26493809D01*
X67154285Y-26350952D01*
X67201904Y-26160476D01*
X67249523Y-26065238D01*
X67344761Y-25970000D01*
X67487619Y-25922380D01*
X67582857Y-25922380D01*
X67725714Y-25970000D01*
X67773333Y-26017619D01*
X105854765Y-47308161D02*
X105991670Y-47355780D01*
X106229765Y-47355780D01*
X106330955Y-47308161D01*
X106384527Y-47260542D01*
X106444051Y-47165304D01*
X106455955Y-47070066D01*
X106420241Y-46974828D01*
X106378575Y-46927209D01*
X106289289Y-46879590D01*
X106104765Y-46831971D01*
X106015479Y-46784352D01*
X105973813Y-46736733D01*
X105938098Y-46641495D01*
X105950003Y-46546257D01*
X106009527Y-46451019D01*
X106063098Y-46403400D01*
X106164289Y-46355780D01*
X106402384Y-46355780D01*
X106539289Y-46403400D01*
X107432146Y-47260542D02*
X107378575Y-47308161D01*
X107229765Y-47355780D01*
X107134527Y-47355780D01*
X106997622Y-47308161D01*
X106914289Y-47212923D01*
X106878575Y-47117685D01*
X106854765Y-46927209D01*
X106872622Y-46784352D01*
X106944051Y-46593876D01*
X107003575Y-46498638D01*
X107110717Y-46403400D01*
X107259527Y-46355780D01*
X107354765Y-46355780D01*
X107491670Y-46403400D01*
X107533336Y-46451019D01*
X107848813Y-47355780D02*
X107973813Y-46355780D01*
X108420241Y-47355780D02*
X108063098Y-46784352D01*
X108545241Y-46355780D02*
X107902384Y-46927209D01*
X53382857Y-51686666D02*
X53859047Y-51686666D01*
X53287619Y-51972380D02*
X53620952Y-50972380D01*
X53954285Y-51972380D01*
X54287619Y-51972380D02*
X54287619Y-50972380D01*
X54525714Y-50972380D01*
X54668571Y-51020000D01*
X54763809Y-51115238D01*
X54811428Y-51210476D01*
X54859047Y-51400952D01*
X54859047Y-51543809D01*
X54811428Y-51734285D01*
X54763809Y-51829523D01*
X54668571Y-51924761D01*
X54525714Y-51972380D01*
X54287619Y-51972380D01*
X55240000Y-51686666D02*
X55716190Y-51686666D01*
X55144761Y-51972380D02*
X55478095Y-50972380D01*
X55811428Y-51972380D01*
X56097142Y-51067619D02*
X56144761Y-51020000D01*
X56240000Y-50972380D01*
X56478095Y-50972380D01*
X56573333Y-51020000D01*
X56620952Y-51067619D01*
X56668571Y-51162857D01*
X56668571Y-51258095D01*
X56620952Y-51400952D01*
X56049523Y-51972380D01*
X56668571Y-51972380D01*
X57573333Y-50972380D02*
X57097142Y-50972380D01*
X57049523Y-51448571D01*
X57097142Y-51400952D01*
X57192380Y-51353333D01*
X57430476Y-51353333D01*
X57525714Y-51400952D01*
X57573333Y-51448571D01*
X57620952Y-51543809D01*
X57620952Y-51781904D01*
X57573333Y-51877142D01*
X57525714Y-51924761D01*
X57430476Y-51972380D01*
X57192380Y-51972380D01*
X57097142Y-51924761D01*
X57049523Y-51877142D01*
X58097142Y-51972380D02*
X58287619Y-51972380D01*
X58382857Y-51924761D01*
X58430476Y-51877142D01*
X58525714Y-51734285D01*
X58573333Y-51543809D01*
X58573333Y-51162857D01*
X58525714Y-51067619D01*
X58478095Y-51020000D01*
X58382857Y-50972380D01*
X58192380Y-50972380D01*
X58097142Y-51020000D01*
X58049523Y-51067619D01*
X58001904Y-51162857D01*
X58001904Y-51400952D01*
X58049523Y-51496190D01*
X58097142Y-51543809D01*
X58192380Y-51591428D01*
X58382857Y-51591428D01*
X58478095Y-51543809D01*
X58525714Y-51496190D01*
X58573333Y-51400952D01*
X60335238Y-51972380D02*
X60001904Y-51496190D01*
X59763809Y-51972380D02*
X59763809Y-50972380D01*
X60144761Y-50972380D01*
X60240000Y-51020000D01*
X60287619Y-51067619D01*
X60335238Y-51162857D01*
X60335238Y-51305714D01*
X60287619Y-51400952D01*
X60240000Y-51448571D01*
X60144761Y-51496190D01*
X59763809Y-51496190D01*
X60620952Y-50972380D02*
X61192380Y-50972380D01*
X60906666Y-51972380D02*
X60906666Y-50972380D01*
X62097142Y-51877142D02*
X62049523Y-51924761D01*
X61906666Y-51972380D01*
X61811428Y-51972380D01*
X61668571Y-51924761D01*
X61573333Y-51829523D01*
X61525714Y-51734285D01*
X61478095Y-51543809D01*
X61478095Y-51400952D01*
X61525714Y-51210476D01*
X61573333Y-51115238D01*
X61668571Y-51020000D01*
X61811428Y-50972380D01*
X61906666Y-50972380D01*
X62049523Y-51020000D01*
X62097142Y-51067619D01*
X62051904Y-26962380D02*
X62051904Y-25962380D01*
X62385238Y-26676666D01*
X62718571Y-25962380D01*
X62718571Y-26962380D01*
X63147142Y-26676666D02*
X63623333Y-26676666D01*
X63051904Y-26962380D02*
X63385238Y-25962380D01*
X63718571Y-26962380D01*
X63956666Y-25962380D02*
X64623333Y-26962380D01*
X64623333Y-25962380D02*
X63956666Y-26962380D01*
X90117790Y-16234466D02*
X90593980Y-16234466D01*
X90022552Y-16520180D02*
X90355885Y-15520180D01*
X90689219Y-16520180D01*
X91022552Y-15520180D02*
X91022552Y-16329704D01*
X91070171Y-16424942D01*
X91117790Y-16472561D01*
X91213028Y-16520180D01*
X91403504Y-16520180D01*
X91498742Y-16472561D01*
X91546361Y-16424942D01*
X91593980Y-16329704D01*
X91593980Y-15520180D01*
X92070171Y-16520180D02*
X92070171Y-15520180D01*
X92308266Y-15520180D01*
X92451123Y-15567800D01*
X92546361Y-15663038D01*
X92593980Y-15758276D01*
X92641600Y-15948752D01*
X92641600Y-16091609D01*
X92593980Y-16282085D01*
X92546361Y-16377323D01*
X92451123Y-16472561D01*
X92308266Y-16520180D01*
X92070171Y-16520180D01*
X93070171Y-16520180D02*
X93070171Y-15520180D01*
X93736838Y-15520180D02*
X93927314Y-15520180D01*
X94022552Y-15567800D01*
X94117790Y-15663038D01*
X94165409Y-15853514D01*
X94165409Y-16186847D01*
X94117790Y-16377323D01*
X94022552Y-16472561D01*
X93927314Y-16520180D01*
X93736838Y-16520180D01*
X93641600Y-16472561D01*
X93546361Y-16377323D01*
X93498742Y-16186847D01*
X93498742Y-15853514D01*
X93546361Y-15663038D01*
X93641600Y-15567800D01*
X93736838Y-15520180D01*
X88174761Y-49832380D02*
X88508095Y-50832380D01*
X88841428Y-49832380D01*
X88936666Y-50927619D02*
X89698571Y-50927619D01*
X90508095Y-50832380D02*
X90174761Y-50356190D01*
X89936666Y-50832380D02*
X89936666Y-49832380D01*
X90317619Y-49832380D01*
X90412857Y-49880000D01*
X90460476Y-49927619D01*
X90508095Y-50022857D01*
X90508095Y-50165714D01*
X90460476Y-50260952D01*
X90412857Y-50308571D01*
X90317619Y-50356190D01*
X89936666Y-50356190D01*
X90793809Y-49832380D02*
X91365238Y-49832380D01*
X91079523Y-50832380D02*
X91079523Y-49832380D01*
X92270000Y-50737142D02*
X92222380Y-50784761D01*
X92079523Y-50832380D01*
X91984285Y-50832380D01*
X91841428Y-50784761D01*
X91746190Y-50689523D01*
X91698571Y-50594285D01*
X91650952Y-50403809D01*
X91650952Y-50260952D01*
X91698571Y-50070476D01*
X91746190Y-49975238D01*
X91841428Y-49880000D01*
X91984285Y-49832380D01*
X92079523Y-49832380D01*
X92222380Y-49880000D01*
X92270000Y-49927619D01*
X46967232Y-24787380D02*
X47092232Y-23787380D01*
X47336279Y-24501666D01*
X47758898Y-23787380D01*
X47633898Y-24787380D01*
X48098184Y-24501666D02*
X48574375Y-24501666D01*
X47967232Y-24787380D02*
X48425565Y-23787380D01*
X48633898Y-24787380D01*
X48996994Y-23787380D02*
X49538660Y-24787380D01*
X49663660Y-23787380D02*
X48871994Y-24787380D01*
X47020803Y-26349761D02*
X47157708Y-26397380D01*
X47395803Y-26397380D01*
X47496994Y-26349761D01*
X47550565Y-26302142D01*
X47610089Y-26206904D01*
X47621994Y-26111666D01*
X47586279Y-26016428D01*
X47544613Y-25968809D01*
X47455327Y-25921190D01*
X47270803Y-25873571D01*
X47181517Y-25825952D01*
X47139851Y-25778333D01*
X47104136Y-25683095D01*
X47116041Y-25587857D01*
X47175565Y-25492619D01*
X47229136Y-25445000D01*
X47330327Y-25397380D01*
X47568422Y-25397380D01*
X47705327Y-25445000D01*
X48598184Y-26302142D02*
X48544613Y-26349761D01*
X48395803Y-26397380D01*
X48300565Y-26397380D01*
X48163660Y-26349761D01*
X48080327Y-26254523D01*
X48044613Y-26159285D01*
X48020803Y-25968809D01*
X48038660Y-25825952D01*
X48110089Y-25635476D01*
X48169613Y-25540238D01*
X48276755Y-25445000D01*
X48425565Y-25397380D01*
X48520803Y-25397380D01*
X48657708Y-25445000D01*
X48699375Y-25492619D01*
X49491041Y-26397380D02*
X49014851Y-26397380D01*
X49139851Y-25397380D01*
X76899613Y-26627380D02*
X77024613Y-25627380D01*
X76965089Y-26103571D02*
X77536517Y-26103571D01*
X77471041Y-26627380D02*
X77596041Y-25627380D01*
X77947232Y-26627380D02*
X78072232Y-25627380D01*
X78310327Y-25627380D01*
X78447232Y-25675000D01*
X78530565Y-25770238D01*
X78566279Y-25865476D01*
X78590089Y-26055952D01*
X78572232Y-26198809D01*
X78500803Y-26389285D01*
X78441279Y-26484523D01*
X78334136Y-26579761D01*
X78185327Y-26627380D01*
X77947232Y-26627380D01*
X79530565Y-26532142D02*
X79476994Y-26579761D01*
X79328184Y-26627380D01*
X79232946Y-26627380D01*
X79096041Y-26579761D01*
X79012708Y-26484523D01*
X78976994Y-26389285D01*
X78953184Y-26198809D01*
X78971041Y-26055952D01*
X79042470Y-25865476D01*
X79101994Y-25770238D01*
X79209136Y-25675000D01*
X79357946Y-25627380D01*
X79453184Y-25627380D01*
X79590089Y-25675000D01*
X79631755Y-25722619D01*
X76976994Y-28189761D02*
X77113898Y-28237380D01*
X77351994Y-28237380D01*
X77453184Y-28189761D01*
X77506755Y-28142142D01*
X77566279Y-28046904D01*
X77578184Y-27951666D01*
X77542470Y-27856428D01*
X77500803Y-27808809D01*
X77411517Y-27761190D01*
X77226994Y-27713571D01*
X77137708Y-27665952D01*
X77096041Y-27618333D01*
X77060327Y-27523095D01*
X77072232Y-27427857D01*
X77131755Y-27332619D01*
X77185327Y-27285000D01*
X77286517Y-27237380D01*
X77524613Y-27237380D01*
X77661517Y-27285000D01*
X77971041Y-28237380D02*
X78096041Y-27237380D01*
X78334136Y-27237380D01*
X78471041Y-27285000D01*
X78554375Y-27380238D01*
X78590089Y-27475476D01*
X78613898Y-27665952D01*
X78596041Y-27808809D01*
X78524613Y-27999285D01*
X78465089Y-28094523D01*
X78357946Y-28189761D01*
X78209136Y-28237380D01*
X77971041Y-28237380D01*
X78959136Y-27951666D02*
X79435327Y-27951666D01*
X78828184Y-28237380D02*
X79286517Y-27237380D01*
X79494851Y-28237380D01*
X79664285Y-20352380D02*
X79664285Y-19352380D01*
X79664285Y-19828571D02*
X80235714Y-19828571D01*
X80235714Y-20352380D02*
X80235714Y-19352380D01*
X80711904Y-20352380D02*
X80711904Y-19352380D01*
X80950000Y-19352380D01*
X81092857Y-19400000D01*
X81188095Y-19495238D01*
X81235714Y-19590476D01*
X81283333Y-19780952D01*
X81283333Y-19923809D01*
X81235714Y-20114285D01*
X81188095Y-20209523D01*
X81092857Y-20304761D01*
X80950000Y-20352380D01*
X80711904Y-20352380D01*
X82283333Y-20257142D02*
X82235714Y-20304761D01*
X82092857Y-20352380D01*
X81997619Y-20352380D01*
X81854761Y-20304761D01*
X81759523Y-20209523D01*
X81711904Y-20114285D01*
X81664285Y-19923809D01*
X81664285Y-19780952D01*
X81711904Y-19590476D01*
X81759523Y-19495238D01*
X81854761Y-19400000D01*
X81997619Y-19352380D01*
X82092857Y-19352380D01*
X82235714Y-19400000D01*
X82283333Y-19447619D01*
X93441428Y-46072380D02*
X92870000Y-46072380D01*
X93155714Y-46072380D02*
X93155714Y-45072380D01*
X93060476Y-45215238D01*
X92965238Y-45310476D01*
X92870000Y-45358095D01*
X93870000Y-45977142D02*
X93917619Y-46024761D01*
X93870000Y-46072380D01*
X93822380Y-46024761D01*
X93870000Y-45977142D01*
X93870000Y-46072380D01*
X94489047Y-45500952D02*
X94393809Y-45453333D01*
X94346190Y-45405714D01*
X94298571Y-45310476D01*
X94298571Y-45262857D01*
X94346190Y-45167619D01*
X94393809Y-45120000D01*
X94489047Y-45072380D01*
X94679523Y-45072380D01*
X94774761Y-45120000D01*
X94822380Y-45167619D01*
X94870000Y-45262857D01*
X94870000Y-45310476D01*
X94822380Y-45405714D01*
X94774761Y-45453333D01*
X94679523Y-45500952D01*
X94489047Y-45500952D01*
X94393809Y-45548571D01*
X94346190Y-45596190D01*
X94298571Y-45691428D01*
X94298571Y-45881904D01*
X94346190Y-45977142D01*
X94393809Y-46024761D01*
X94489047Y-46072380D01*
X94679523Y-46072380D01*
X94774761Y-46024761D01*
X94822380Y-45977142D01*
X94870000Y-45881904D01*
X94870000Y-45691428D01*
X94822380Y-45596190D01*
X94774761Y-45548571D01*
X94679523Y-45500952D01*
X67837123Y-19482580D02*
X68408552Y-19482580D01*
X68122838Y-20482580D02*
X68122838Y-19482580D01*
X68741885Y-20482580D02*
X68741885Y-19482580D01*
X68741885Y-19958771D02*
X69313314Y-19958771D01*
X69313314Y-20482580D02*
X69313314Y-19482580D01*
X69646647Y-19482580D02*
X70218076Y-19482580D01*
X69932361Y-20482580D02*
X69932361Y-19482580D01*
X59237657Y-25210161D02*
X59380514Y-25257780D01*
X59618609Y-25257780D01*
X59713847Y-25210161D01*
X59761466Y-25162542D01*
X59809085Y-25067304D01*
X59809085Y-24972066D01*
X59761466Y-24876828D01*
X59713847Y-24829209D01*
X59618609Y-24781590D01*
X59428133Y-24733971D01*
X59332895Y-24686352D01*
X59285276Y-24638733D01*
X59237657Y-24543495D01*
X59237657Y-24448257D01*
X59285276Y-24353019D01*
X59332895Y-24305400D01*
X59428133Y-24257780D01*
X59666228Y-24257780D01*
X59809085Y-24305400D01*
X60237657Y-25257780D02*
X60237657Y-24257780D01*
X60570990Y-24972066D01*
X60904323Y-24257780D01*
X60904323Y-25257780D01*
X61380514Y-25257780D02*
X61380514Y-24257780D01*
X61618609Y-24257780D01*
X61761466Y-24305400D01*
X61856704Y-24400638D01*
X61904323Y-24495876D01*
X61951942Y-24686352D01*
X61951942Y-24829209D01*
X61904323Y-25019685D01*
X61856704Y-25114923D01*
X61761466Y-25210161D01*
X61618609Y-25257780D01*
X61380514Y-25257780D01*
X106522565Y-43653742D02*
X106468994Y-43701361D01*
X106320184Y-43748980D01*
X106224946Y-43748980D01*
X106088041Y-43701361D01*
X106004708Y-43606123D01*
X105968994Y-43510885D01*
X105945184Y-43320409D01*
X105963041Y-43177552D01*
X106034470Y-42987076D01*
X106093994Y-42891838D01*
X106201136Y-42796600D01*
X106349946Y-42748980D01*
X106445184Y-42748980D01*
X106582089Y-42796600D01*
X106623755Y-42844219D01*
X106897565Y-43701361D02*
X107034470Y-43748980D01*
X107272565Y-43748980D01*
X107373755Y-43701361D01*
X107427327Y-43653742D01*
X107486851Y-43558504D01*
X107498755Y-43463266D01*
X107463041Y-43368028D01*
X107421375Y-43320409D01*
X107332089Y-43272790D01*
X107147565Y-43225171D01*
X107058279Y-43177552D01*
X107016613Y-43129933D01*
X106980898Y-43034695D01*
X106992803Y-42939457D01*
X107052327Y-42844219D01*
X107105898Y-42796600D01*
X107207089Y-42748980D01*
X107445184Y-42748980D01*
X107582089Y-42796600D01*
X48853452Y-39867380D02*
X48282023Y-39867380D01*
X48567738Y-39867380D02*
X48567738Y-38867380D01*
X48472500Y-39010238D01*
X48377261Y-39105476D01*
X48282023Y-39153095D01*
X49282023Y-39772142D02*
X49329642Y-39819761D01*
X49282023Y-39867380D01*
X49234404Y-39819761D01*
X49282023Y-39772142D01*
X49282023Y-39867380D01*
X49901071Y-39295952D02*
X49805833Y-39248333D01*
X49758214Y-39200714D01*
X49710595Y-39105476D01*
X49710595Y-39057857D01*
X49758214Y-38962619D01*
X49805833Y-38915000D01*
X49901071Y-38867380D01*
X50091547Y-38867380D01*
X50186785Y-38915000D01*
X50234404Y-38962619D01*
X50282023Y-39057857D01*
X50282023Y-39105476D01*
X50234404Y-39200714D01*
X50186785Y-39248333D01*
X50091547Y-39295952D01*
X49901071Y-39295952D01*
X49805833Y-39343571D01*
X49758214Y-39391190D01*
X49710595Y-39486428D01*
X49710595Y-39676904D01*
X49758214Y-39772142D01*
X49805833Y-39819761D01*
X49901071Y-39867380D01*
X50091547Y-39867380D01*
X50186785Y-39819761D01*
X50234404Y-39772142D01*
X50282023Y-39676904D01*
X50282023Y-39486428D01*
X50234404Y-39391190D01*
X50186785Y-39343571D01*
X50091547Y-39295952D01*
X47853452Y-41429761D02*
X47996309Y-41477380D01*
X48234404Y-41477380D01*
X48329642Y-41429761D01*
X48377261Y-41382142D01*
X48424880Y-41286904D01*
X48424880Y-41191666D01*
X48377261Y-41096428D01*
X48329642Y-41048809D01*
X48234404Y-41001190D01*
X48043928Y-40953571D01*
X47948690Y-40905952D01*
X47901071Y-40858333D01*
X47853452Y-40763095D01*
X47853452Y-40667857D01*
X47901071Y-40572619D01*
X47948690Y-40525000D01*
X48043928Y-40477380D01*
X48282023Y-40477380D01*
X48424880Y-40525000D01*
X48853452Y-41477380D02*
X48853452Y-40477380D01*
X49091547Y-40477380D01*
X49234404Y-40525000D01*
X49329642Y-40620238D01*
X49377261Y-40715476D01*
X49424880Y-40905952D01*
X49424880Y-41048809D01*
X49377261Y-41239285D01*
X49329642Y-41334523D01*
X49234404Y-41429761D01*
X49091547Y-41477380D01*
X48853452Y-41477380D01*
X49805833Y-41191666D02*
X50282023Y-41191666D01*
X49710595Y-41477380D02*
X50043928Y-40477380D01*
X50377261Y-41477380D01*
X105766298Y-51013380D02*
X105891298Y-50013380D01*
X106135346Y-50727666D01*
X106557965Y-50013380D01*
X106432965Y-51013380D01*
X107224632Y-50013380D02*
X107415108Y-50013380D01*
X107504394Y-50061000D01*
X107587727Y-50156238D01*
X107611536Y-50346714D01*
X107569870Y-50680047D01*
X107498441Y-50870523D01*
X107391298Y-50965761D01*
X107290108Y-51013380D01*
X107099632Y-51013380D01*
X107010346Y-50965761D01*
X106927013Y-50870523D01*
X106903203Y-50680047D01*
X106944870Y-50346714D01*
X107016298Y-50156238D01*
X107123441Y-50061000D01*
X107224632Y-50013380D01*
X107915108Y-50965761D02*
X108052013Y-51013380D01*
X108290108Y-51013380D01*
X108391298Y-50965761D01*
X108444870Y-50918142D01*
X108504394Y-50822904D01*
X108516298Y-50727666D01*
X108480584Y-50632428D01*
X108438917Y-50584809D01*
X108349632Y-50537190D01*
X108165108Y-50489571D01*
X108075822Y-50441952D01*
X108034155Y-50394333D01*
X107998441Y-50299095D01*
X108010346Y-50203857D01*
X108069870Y-50108619D01*
X108123441Y-50061000D01*
X108224632Y-50013380D01*
X108462727Y-50013380D01*
X108599632Y-50061000D01*
X108909155Y-51013380D02*
X109034155Y-50013380D01*
X63669523Y-28154761D02*
X63812380Y-28202380D01*
X64050476Y-28202380D01*
X64145714Y-28154761D01*
X64193333Y-28107142D01*
X64240952Y-28011904D01*
X64240952Y-27916666D01*
X64193333Y-27821428D01*
X64145714Y-27773809D01*
X64050476Y-27726190D01*
X63860000Y-27678571D01*
X63764761Y-27630952D01*
X63717142Y-27583333D01*
X63669523Y-27488095D01*
X63669523Y-27392857D01*
X63717142Y-27297619D01*
X63764761Y-27250000D01*
X63860000Y-27202380D01*
X64098095Y-27202380D01*
X64240952Y-27250000D01*
X65240952Y-28107142D02*
X65193333Y-28154761D01*
X65050476Y-28202380D01*
X64955238Y-28202380D01*
X64812380Y-28154761D01*
X64717142Y-28059523D01*
X64669523Y-27964285D01*
X64621904Y-27773809D01*
X64621904Y-27630952D01*
X64669523Y-27440476D01*
X64717142Y-27345238D01*
X64812380Y-27250000D01*
X64955238Y-27202380D01*
X65050476Y-27202380D01*
X65193333Y-27250000D01*
X65240952Y-27297619D01*
X66145714Y-28202380D02*
X65669523Y-28202380D01*
X65669523Y-27202380D01*
X41911904Y-19962380D02*
X41911904Y-18962380D01*
X42245238Y-19676666D01*
X42578571Y-18962380D01*
X42578571Y-19962380D01*
X43007142Y-19676666D02*
X43483333Y-19676666D01*
X42911904Y-19962380D02*
X43245238Y-18962380D01*
X43578571Y-19962380D01*
X43816666Y-18962380D02*
X44483333Y-19962380D01*
X44483333Y-18962380D02*
X43816666Y-19962380D01*
%TO.C,J2*%
X71475380Y-53968133D02*
X72189666Y-53968133D01*
X72332523Y-54015752D01*
X72427761Y-54110990D01*
X72475380Y-54253847D01*
X72475380Y-54349085D01*
X71570619Y-53539561D02*
X71523000Y-53491942D01*
X71475380Y-53396704D01*
X71475380Y-53158609D01*
X71523000Y-53063371D01*
X71570619Y-53015752D01*
X71665857Y-52968133D01*
X71761095Y-52968133D01*
X71903952Y-53015752D01*
X72475380Y-53587180D01*
X72475380Y-52968133D01*
%TO.C,C1*%
X27509733Y-37252942D02*
X27462114Y-37300561D01*
X27319257Y-37348180D01*
X27224019Y-37348180D01*
X27081161Y-37300561D01*
X26985923Y-37205323D01*
X26938304Y-37110085D01*
X26890685Y-36919609D01*
X26890685Y-36776752D01*
X26938304Y-36586276D01*
X26985923Y-36491038D01*
X27081161Y-36395800D01*
X27224019Y-36348180D01*
X27319257Y-36348180D01*
X27462114Y-36395800D01*
X27509733Y-36443419D01*
X28462114Y-37348180D02*
X27890685Y-37348180D01*
X28176400Y-37348180D02*
X28176400Y-36348180D01*
X28081161Y-36491038D01*
X27985923Y-36586276D01*
X27890685Y-36633895D01*
%TO.C,R3*%
X19838933Y-38414980D02*
X19505600Y-37938790D01*
X19267504Y-38414980D02*
X19267504Y-37414980D01*
X19648457Y-37414980D01*
X19743695Y-37462600D01*
X19791314Y-37510219D01*
X19838933Y-37605457D01*
X19838933Y-37748314D01*
X19791314Y-37843552D01*
X19743695Y-37891171D01*
X19648457Y-37938790D01*
X19267504Y-37938790D01*
X20172266Y-37414980D02*
X20791314Y-37414980D01*
X20457980Y-37795933D01*
X20600838Y-37795933D01*
X20696076Y-37843552D01*
X20743695Y-37891171D01*
X20791314Y-37986409D01*
X20791314Y-38224504D01*
X20743695Y-38319742D01*
X20696076Y-38367361D01*
X20600838Y-38414980D01*
X20315123Y-38414980D01*
X20219885Y-38367361D01*
X20172266Y-38319742D01*
%TO.C,C13*%
X64523942Y-44771342D02*
X64476323Y-44818961D01*
X64333466Y-44866580D01*
X64238228Y-44866580D01*
X64095371Y-44818961D01*
X64000133Y-44723723D01*
X63952514Y-44628485D01*
X63904895Y-44438009D01*
X63904895Y-44295152D01*
X63952514Y-44104676D01*
X64000133Y-44009438D01*
X64095371Y-43914200D01*
X64238228Y-43866580D01*
X64333466Y-43866580D01*
X64476323Y-43914200D01*
X64523942Y-43961819D01*
X65476323Y-44866580D02*
X64904895Y-44866580D01*
X65190609Y-44866580D02*
X65190609Y-43866580D01*
X65095371Y-44009438D01*
X65000133Y-44104676D01*
X64904895Y-44152295D01*
X65809657Y-43866580D02*
X66428704Y-43866580D01*
X66095371Y-44247533D01*
X66238228Y-44247533D01*
X66333466Y-44295152D01*
X66381085Y-44342771D01*
X66428704Y-44438009D01*
X66428704Y-44676104D01*
X66381085Y-44771342D01*
X66333466Y-44818961D01*
X66238228Y-44866580D01*
X65952514Y-44866580D01*
X65857276Y-44818961D01*
X65809657Y-44771342D01*
%TO.C,R18*%
X18324380Y-52016657D02*
X17848190Y-52349990D01*
X18324380Y-52588085D02*
X17324380Y-52588085D01*
X17324380Y-52207133D01*
X17372000Y-52111895D01*
X17419619Y-52064276D01*
X17514857Y-52016657D01*
X17657714Y-52016657D01*
X17752952Y-52064276D01*
X17800571Y-52111895D01*
X17848190Y-52207133D01*
X17848190Y-52588085D01*
X18324380Y-51064276D02*
X18324380Y-51635704D01*
X18324380Y-51349990D02*
X17324380Y-51349990D01*
X17467238Y-51445228D01*
X17562476Y-51540466D01*
X17610095Y-51635704D01*
X17752952Y-50492847D02*
X17705333Y-50588085D01*
X17657714Y-50635704D01*
X17562476Y-50683323D01*
X17514857Y-50683323D01*
X17419619Y-50635704D01*
X17372000Y-50588085D01*
X17324380Y-50492847D01*
X17324380Y-50302371D01*
X17372000Y-50207133D01*
X17419619Y-50159514D01*
X17514857Y-50111895D01*
X17562476Y-50111895D01*
X17657714Y-50159514D01*
X17705333Y-50207133D01*
X17752952Y-50302371D01*
X17752952Y-50492847D01*
X17800571Y-50588085D01*
X17848190Y-50635704D01*
X17943428Y-50683323D01*
X18133904Y-50683323D01*
X18229142Y-50635704D01*
X18276761Y-50588085D01*
X18324380Y-50492847D01*
X18324380Y-50302371D01*
X18276761Y-50207133D01*
X18229142Y-50159514D01*
X18133904Y-50111895D01*
X17943428Y-50111895D01*
X17848190Y-50159514D01*
X17800571Y-50207133D01*
X17752952Y-50302371D01*
%TO.C,C6*%
X92889333Y-42383742D02*
X92841714Y-42431361D01*
X92698857Y-42478980D01*
X92603619Y-42478980D01*
X92460761Y-42431361D01*
X92365523Y-42336123D01*
X92317904Y-42240885D01*
X92270285Y-42050409D01*
X92270285Y-41907552D01*
X92317904Y-41717076D01*
X92365523Y-41621838D01*
X92460761Y-41526600D01*
X92603619Y-41478980D01*
X92698857Y-41478980D01*
X92841714Y-41526600D01*
X92889333Y-41574219D01*
X93746476Y-41478980D02*
X93556000Y-41478980D01*
X93460761Y-41526600D01*
X93413142Y-41574219D01*
X93317904Y-41717076D01*
X93270285Y-41907552D01*
X93270285Y-42288504D01*
X93317904Y-42383742D01*
X93365523Y-42431361D01*
X93460761Y-42478980D01*
X93651238Y-42478980D01*
X93746476Y-42431361D01*
X93794095Y-42383742D01*
X93841714Y-42288504D01*
X93841714Y-42050409D01*
X93794095Y-41955171D01*
X93746476Y-41907552D01*
X93651238Y-41859933D01*
X93460761Y-41859933D01*
X93365523Y-41907552D01*
X93317904Y-41955171D01*
X93270285Y-42050409D01*
%TO.C,R16*%
X55857542Y-38512180D02*
X55524209Y-38035990D01*
X55286114Y-38512180D02*
X55286114Y-37512180D01*
X55667066Y-37512180D01*
X55762304Y-37559800D01*
X55809923Y-37607419D01*
X55857542Y-37702657D01*
X55857542Y-37845514D01*
X55809923Y-37940752D01*
X55762304Y-37988371D01*
X55667066Y-38035990D01*
X55286114Y-38035990D01*
X56809923Y-38512180D02*
X56238495Y-38512180D01*
X56524209Y-38512180D02*
X56524209Y-37512180D01*
X56428971Y-37655038D01*
X56333733Y-37750276D01*
X56238495Y-37797895D01*
X57667066Y-37512180D02*
X57476590Y-37512180D01*
X57381352Y-37559800D01*
X57333733Y-37607419D01*
X57238495Y-37750276D01*
X57190876Y-37940752D01*
X57190876Y-38321704D01*
X57238495Y-38416942D01*
X57286114Y-38464561D01*
X57381352Y-38512180D01*
X57571828Y-38512180D01*
X57667066Y-38464561D01*
X57714685Y-38416942D01*
X57762304Y-38321704D01*
X57762304Y-38083609D01*
X57714685Y-37988371D01*
X57667066Y-37940752D01*
X57571828Y-37893133D01*
X57381352Y-37893133D01*
X57286114Y-37940752D01*
X57238495Y-37988371D01*
X57190876Y-38083609D01*
%TO.C,C14*%
X65371542Y-33881057D02*
X65419161Y-33928676D01*
X65466780Y-34071533D01*
X65466780Y-34166771D01*
X65419161Y-34309628D01*
X65323923Y-34404866D01*
X65228685Y-34452485D01*
X65038209Y-34500104D01*
X64895352Y-34500104D01*
X64704876Y-34452485D01*
X64609638Y-34404866D01*
X64514400Y-34309628D01*
X64466780Y-34166771D01*
X64466780Y-34071533D01*
X64514400Y-33928676D01*
X64562019Y-33881057D01*
X65466780Y-32928676D02*
X65466780Y-33500104D01*
X65466780Y-33214390D02*
X64466780Y-33214390D01*
X64609638Y-33309628D01*
X64704876Y-33404866D01*
X64752495Y-33500104D01*
X64800114Y-32071533D02*
X65466780Y-32071533D01*
X64419161Y-32309628D02*
X65133447Y-32547723D01*
X65133447Y-31928676D01*
%TO.C,D9*%
X18730780Y-55769495D02*
X17730780Y-55769495D01*
X17730780Y-55531400D01*
X17778400Y-55388542D01*
X17873638Y-55293304D01*
X17968876Y-55245685D01*
X18159352Y-55198066D01*
X18302209Y-55198066D01*
X18492685Y-55245685D01*
X18587923Y-55293304D01*
X18683161Y-55388542D01*
X18730780Y-55531400D01*
X18730780Y-55769495D01*
X18730780Y-54721876D02*
X18730780Y-54531400D01*
X18683161Y-54436161D01*
X18635542Y-54388542D01*
X18492685Y-54293304D01*
X18302209Y-54245685D01*
X17921257Y-54245685D01*
X17826019Y-54293304D01*
X17778400Y-54340923D01*
X17730780Y-54436161D01*
X17730780Y-54626638D01*
X17778400Y-54721876D01*
X17826019Y-54769495D01*
X17921257Y-54817114D01*
X18159352Y-54817114D01*
X18254590Y-54769495D01*
X18302209Y-54721876D01*
X18349828Y-54626638D01*
X18349828Y-54436161D01*
X18302209Y-54340923D01*
X18254590Y-54293304D01*
X18159352Y-54245685D01*
%TO.C,D4*%
X106846704Y-23225780D02*
X106846704Y-22225780D01*
X107084800Y-22225780D01*
X107227657Y-22273400D01*
X107322895Y-22368638D01*
X107370514Y-22463876D01*
X107418133Y-22654352D01*
X107418133Y-22797209D01*
X107370514Y-22987685D01*
X107322895Y-23082923D01*
X107227657Y-23178161D01*
X107084800Y-23225780D01*
X106846704Y-23225780D01*
X108275276Y-22559114D02*
X108275276Y-23225780D01*
X108037180Y-22178161D02*
X107799085Y-22892447D01*
X108418133Y-22892447D01*
%TO.C,R2*%
X29389333Y-40802580D02*
X29056000Y-40326390D01*
X28817904Y-40802580D02*
X28817904Y-39802580D01*
X29198857Y-39802580D01*
X29294095Y-39850200D01*
X29341714Y-39897819D01*
X29389333Y-39993057D01*
X29389333Y-40135914D01*
X29341714Y-40231152D01*
X29294095Y-40278771D01*
X29198857Y-40326390D01*
X28817904Y-40326390D01*
X29770285Y-39897819D02*
X29817904Y-39850200D01*
X29913142Y-39802580D01*
X30151238Y-39802580D01*
X30246476Y-39850200D01*
X30294095Y-39897819D01*
X30341714Y-39993057D01*
X30341714Y-40088295D01*
X30294095Y-40231152D01*
X29722666Y-40802580D01*
X30341714Y-40802580D01*
%TO.C,Q1*%
X87118761Y-16818619D02*
X87023523Y-16771000D01*
X86928285Y-16675761D01*
X86785428Y-16532904D01*
X86690190Y-16485285D01*
X86594952Y-16485285D01*
X86642571Y-16723380D02*
X86547333Y-16675761D01*
X86452095Y-16580523D01*
X86404476Y-16390047D01*
X86404476Y-16056714D01*
X86452095Y-15866238D01*
X86547333Y-15771000D01*
X86642571Y-15723380D01*
X86833047Y-15723380D01*
X86928285Y-15771000D01*
X87023523Y-15866238D01*
X87071142Y-16056714D01*
X87071142Y-16390047D01*
X87023523Y-16580523D01*
X86928285Y-16675761D01*
X86833047Y-16723380D01*
X86642571Y-16723380D01*
X88023523Y-16723380D02*
X87452095Y-16723380D01*
X87737809Y-16723380D02*
X87737809Y-15723380D01*
X87642571Y-15866238D01*
X87547333Y-15961476D01*
X87452095Y-16009095D01*
%TO.C,U5*%
X69549895Y-46533580D02*
X69549895Y-47343104D01*
X69597514Y-47438342D01*
X69645133Y-47485961D01*
X69740371Y-47533580D01*
X69930847Y-47533580D01*
X70026085Y-47485961D01*
X70073704Y-47438342D01*
X70121323Y-47343104D01*
X70121323Y-46533580D01*
X71073704Y-46533580D02*
X70597514Y-46533580D01*
X70549895Y-47009771D01*
X70597514Y-46962152D01*
X70692752Y-46914533D01*
X70930847Y-46914533D01*
X71026085Y-46962152D01*
X71073704Y-47009771D01*
X71121323Y-47105009D01*
X71121323Y-47343104D01*
X71073704Y-47438342D01*
X71026085Y-47485961D01*
X70930847Y-47533580D01*
X70692752Y-47533580D01*
X70597514Y-47485961D01*
X70549895Y-47438342D01*
%TO.C,C10*%
X81592742Y-27956542D02*
X81545123Y-28004161D01*
X81402266Y-28051780D01*
X81307028Y-28051780D01*
X81164171Y-28004161D01*
X81068933Y-27908923D01*
X81021314Y-27813685D01*
X80973695Y-27623209D01*
X80973695Y-27480352D01*
X81021314Y-27289876D01*
X81068933Y-27194638D01*
X81164171Y-27099400D01*
X81307028Y-27051780D01*
X81402266Y-27051780D01*
X81545123Y-27099400D01*
X81592742Y-27147019D01*
X82545123Y-28051780D02*
X81973695Y-28051780D01*
X82259409Y-28051780D02*
X82259409Y-27051780D01*
X82164171Y-27194638D01*
X82068933Y-27289876D01*
X81973695Y-27337495D01*
X83164171Y-27051780D02*
X83259409Y-27051780D01*
X83354647Y-27099400D01*
X83402266Y-27147019D01*
X83449885Y-27242257D01*
X83497504Y-27432733D01*
X83497504Y-27670828D01*
X83449885Y-27861304D01*
X83402266Y-27956542D01*
X83354647Y-28004161D01*
X83259409Y-28051780D01*
X83164171Y-28051780D01*
X83068933Y-28004161D01*
X83021314Y-27956542D01*
X82973695Y-27861304D01*
X82926076Y-27670828D01*
X82926076Y-27432733D01*
X82973695Y-27242257D01*
X83021314Y-27147019D01*
X83068933Y-27099400D01*
X83164171Y-27051780D01*
%TO.C,R14*%
X25707142Y-22202380D02*
X25373809Y-21726190D01*
X25135714Y-22202380D02*
X25135714Y-21202380D01*
X25516666Y-21202380D01*
X25611904Y-21250000D01*
X25659523Y-21297619D01*
X25707142Y-21392857D01*
X25707142Y-21535714D01*
X25659523Y-21630952D01*
X25611904Y-21678571D01*
X25516666Y-21726190D01*
X25135714Y-21726190D01*
X26659523Y-22202380D02*
X26088095Y-22202380D01*
X26373809Y-22202380D02*
X26373809Y-21202380D01*
X26278571Y-21345238D01*
X26183333Y-21440476D01*
X26088095Y-21488095D01*
X27516666Y-21535714D02*
X27516666Y-22202380D01*
X27278571Y-21154761D02*
X27040476Y-21869047D01*
X27659523Y-21869047D01*
%TO.C,C12*%
X66233942Y-36418657D02*
X66281561Y-36466276D01*
X66329180Y-36609133D01*
X66329180Y-36704371D01*
X66281561Y-36847228D01*
X66186323Y-36942466D01*
X66091085Y-36990085D01*
X65900609Y-37037704D01*
X65757752Y-37037704D01*
X65567276Y-36990085D01*
X65472038Y-36942466D01*
X65376800Y-36847228D01*
X65329180Y-36704371D01*
X65329180Y-36609133D01*
X65376800Y-36466276D01*
X65424419Y-36418657D01*
X66329180Y-35466276D02*
X66329180Y-36037704D01*
X66329180Y-35751990D02*
X65329180Y-35751990D01*
X65472038Y-35847228D01*
X65567276Y-35942466D01*
X65614895Y-36037704D01*
X65424419Y-35085323D02*
X65376800Y-35037704D01*
X65329180Y-34942466D01*
X65329180Y-34704371D01*
X65376800Y-34609133D01*
X65424419Y-34561514D01*
X65519657Y-34513895D01*
X65614895Y-34513895D01*
X65757752Y-34561514D01*
X66329180Y-35132942D01*
X66329180Y-34513895D01*
%TO.C,JP5*%
X37815866Y-36805380D02*
X37815866Y-37519666D01*
X37768247Y-37662523D01*
X37673009Y-37757761D01*
X37530152Y-37805380D01*
X37434914Y-37805380D01*
X38292057Y-37805380D02*
X38292057Y-36805380D01*
X38673009Y-36805380D01*
X38768247Y-36853000D01*
X38815866Y-36900619D01*
X38863485Y-36995857D01*
X38863485Y-37138714D01*
X38815866Y-37233952D01*
X38768247Y-37281571D01*
X38673009Y-37329190D01*
X38292057Y-37329190D01*
X39768247Y-36805380D02*
X39292057Y-36805380D01*
X39244438Y-37281571D01*
X39292057Y-37233952D01*
X39387295Y-37186333D01*
X39625390Y-37186333D01*
X39720628Y-37233952D01*
X39768247Y-37281571D01*
X39815866Y-37376809D01*
X39815866Y-37614904D01*
X39768247Y-37710142D01*
X39720628Y-37757761D01*
X39625390Y-37805380D01*
X39387295Y-37805380D01*
X39292057Y-37757761D01*
X39244438Y-37710142D01*
%TO.C,C8*%
X86427133Y-42637742D02*
X86379514Y-42685361D01*
X86236657Y-42732980D01*
X86141419Y-42732980D01*
X85998561Y-42685361D01*
X85903323Y-42590123D01*
X85855704Y-42494885D01*
X85808085Y-42304409D01*
X85808085Y-42161552D01*
X85855704Y-41971076D01*
X85903323Y-41875838D01*
X85998561Y-41780600D01*
X86141419Y-41732980D01*
X86236657Y-41732980D01*
X86379514Y-41780600D01*
X86427133Y-41828219D01*
X86998561Y-42161552D02*
X86903323Y-42113933D01*
X86855704Y-42066314D01*
X86808085Y-41971076D01*
X86808085Y-41923457D01*
X86855704Y-41828219D01*
X86903323Y-41780600D01*
X86998561Y-41732980D01*
X87189038Y-41732980D01*
X87284276Y-41780600D01*
X87331895Y-41828219D01*
X87379514Y-41923457D01*
X87379514Y-41971076D01*
X87331895Y-42066314D01*
X87284276Y-42113933D01*
X87189038Y-42161552D01*
X86998561Y-42161552D01*
X86903323Y-42209171D01*
X86855704Y-42256790D01*
X86808085Y-42352028D01*
X86808085Y-42542504D01*
X86855704Y-42637742D01*
X86903323Y-42685361D01*
X86998561Y-42732980D01*
X87189038Y-42732980D01*
X87284276Y-42685361D01*
X87331895Y-42637742D01*
X87379514Y-42542504D01*
X87379514Y-42352028D01*
X87331895Y-42256790D01*
X87284276Y-42209171D01*
X87189038Y-42161552D01*
%TO.C,R19*%
X19362742Y-42682180D02*
X19029409Y-42205990D01*
X18791314Y-42682180D02*
X18791314Y-41682180D01*
X19172266Y-41682180D01*
X19267504Y-41729800D01*
X19315123Y-41777419D01*
X19362742Y-41872657D01*
X19362742Y-42015514D01*
X19315123Y-42110752D01*
X19267504Y-42158371D01*
X19172266Y-42205990D01*
X18791314Y-42205990D01*
X20315123Y-42682180D02*
X19743695Y-42682180D01*
X20029409Y-42682180D02*
X20029409Y-41682180D01*
X19934171Y-41825038D01*
X19838933Y-41920276D01*
X19743695Y-41967895D01*
X20791314Y-42682180D02*
X20981790Y-42682180D01*
X21077028Y-42634561D01*
X21124647Y-42586942D01*
X21219885Y-42444085D01*
X21267504Y-42253609D01*
X21267504Y-41872657D01*
X21219885Y-41777419D01*
X21172266Y-41729800D01*
X21077028Y-41682180D01*
X20886552Y-41682180D01*
X20791314Y-41729800D01*
X20743695Y-41777419D01*
X20696076Y-41872657D01*
X20696076Y-42110752D01*
X20743695Y-42205990D01*
X20791314Y-42253609D01*
X20886552Y-42301228D01*
X21077028Y-42301228D01*
X21172266Y-42253609D01*
X21219885Y-42205990D01*
X21267504Y-42110752D01*
%TO.C,U12*%
X18226380Y-47023895D02*
X19035904Y-47023895D01*
X19131142Y-46976276D01*
X19178761Y-46928657D01*
X19226380Y-46833419D01*
X19226380Y-46642942D01*
X19178761Y-46547704D01*
X19131142Y-46500085D01*
X19035904Y-46452466D01*
X18226380Y-46452466D01*
X19226380Y-45452466D02*
X19226380Y-46023895D01*
X19226380Y-45738180D02*
X18226380Y-45738180D01*
X18369238Y-45833419D01*
X18464476Y-45928657D01*
X18512095Y-46023895D01*
X18321619Y-45071514D02*
X18274000Y-45023895D01*
X18226380Y-44928657D01*
X18226380Y-44690561D01*
X18274000Y-44595323D01*
X18321619Y-44547704D01*
X18416857Y-44500085D01*
X18512095Y-44500085D01*
X18654952Y-44547704D01*
X19226380Y-45119133D01*
X19226380Y-44500085D01*
%TO.C,U1*%
X90414495Y-26899380D02*
X90414495Y-27708904D01*
X90462114Y-27804142D01*
X90509733Y-27851761D01*
X90604971Y-27899380D01*
X90795447Y-27899380D01*
X90890685Y-27851761D01*
X90938304Y-27804142D01*
X90985923Y-27708904D01*
X90985923Y-26899380D01*
X91985923Y-27899380D02*
X91414495Y-27899380D01*
X91700209Y-27899380D02*
X91700209Y-26899380D01*
X91604971Y-27042238D01*
X91509733Y-27137476D01*
X91414495Y-27185095D01*
%TO.C,C9*%
X83084933Y-43501342D02*
X83037314Y-43548961D01*
X82894457Y-43596580D01*
X82799219Y-43596580D01*
X82656361Y-43548961D01*
X82561123Y-43453723D01*
X82513504Y-43358485D01*
X82465885Y-43168009D01*
X82465885Y-43025152D01*
X82513504Y-42834676D01*
X82561123Y-42739438D01*
X82656361Y-42644200D01*
X82799219Y-42596580D01*
X82894457Y-42596580D01*
X83037314Y-42644200D01*
X83084933Y-42691819D01*
X83561123Y-43596580D02*
X83751600Y-43596580D01*
X83846838Y-43548961D01*
X83894457Y-43501342D01*
X83989695Y-43358485D01*
X84037314Y-43168009D01*
X84037314Y-42787057D01*
X83989695Y-42691819D01*
X83942076Y-42644200D01*
X83846838Y-42596580D01*
X83656361Y-42596580D01*
X83561123Y-42644200D01*
X83513504Y-42691819D01*
X83465885Y-42787057D01*
X83465885Y-43025152D01*
X83513504Y-43120390D01*
X83561123Y-43168009D01*
X83656361Y-43215628D01*
X83846838Y-43215628D01*
X83942076Y-43168009D01*
X83989695Y-43120390D01*
X84037314Y-43025152D01*
%TO.C,C24*%
X28252742Y-53246542D02*
X28205123Y-53294161D01*
X28062266Y-53341780D01*
X27967028Y-53341780D01*
X27824171Y-53294161D01*
X27728933Y-53198923D01*
X27681314Y-53103685D01*
X27633695Y-52913209D01*
X27633695Y-52770352D01*
X27681314Y-52579876D01*
X27728933Y-52484638D01*
X27824171Y-52389400D01*
X27967028Y-52341780D01*
X28062266Y-52341780D01*
X28205123Y-52389400D01*
X28252742Y-52437019D01*
X28633695Y-52437019D02*
X28681314Y-52389400D01*
X28776552Y-52341780D01*
X29014647Y-52341780D01*
X29109885Y-52389400D01*
X29157504Y-52437019D01*
X29205123Y-52532257D01*
X29205123Y-52627495D01*
X29157504Y-52770352D01*
X28586076Y-53341780D01*
X29205123Y-53341780D01*
X30062266Y-52675114D02*
X30062266Y-53341780D01*
X29824171Y-52294161D02*
X29586076Y-53008447D01*
X30205123Y-53008447D01*
%TO.C,U7*%
X72024895Y-35535380D02*
X72024895Y-36344904D01*
X72072514Y-36440142D01*
X72120133Y-36487761D01*
X72215371Y-36535380D01*
X72405847Y-36535380D01*
X72501085Y-36487761D01*
X72548704Y-36440142D01*
X72596323Y-36344904D01*
X72596323Y-35535380D01*
X72977276Y-35535380D02*
X73643942Y-35535380D01*
X73215371Y-36535380D01*
%TO.C,D8*%
X110656704Y-35671780D02*
X110656704Y-34671780D01*
X110894800Y-34671780D01*
X111037657Y-34719400D01*
X111132895Y-34814638D01*
X111180514Y-34909876D01*
X111228133Y-35100352D01*
X111228133Y-35243209D01*
X111180514Y-35433685D01*
X111132895Y-35528923D01*
X111037657Y-35624161D01*
X110894800Y-35671780D01*
X110656704Y-35671780D01*
X111799561Y-35100352D02*
X111704323Y-35052733D01*
X111656704Y-35005114D01*
X111609085Y-34909876D01*
X111609085Y-34862257D01*
X111656704Y-34767019D01*
X111704323Y-34719400D01*
X111799561Y-34671780D01*
X111990038Y-34671780D01*
X112085276Y-34719400D01*
X112132895Y-34767019D01*
X112180514Y-34862257D01*
X112180514Y-34909876D01*
X112132895Y-35005114D01*
X112085276Y-35052733D01*
X111990038Y-35100352D01*
X111799561Y-35100352D01*
X111704323Y-35147971D01*
X111656704Y-35195590D01*
X111609085Y-35290828D01*
X111609085Y-35481304D01*
X111656704Y-35576542D01*
X111704323Y-35624161D01*
X111799561Y-35671780D01*
X111990038Y-35671780D01*
X112085276Y-35624161D01*
X112132895Y-35576542D01*
X112180514Y-35481304D01*
X112180514Y-35290828D01*
X112132895Y-35195590D01*
X112085276Y-35147971D01*
X111990038Y-35100352D01*
%TO.C,D5*%
X104763904Y-23225780D02*
X104763904Y-22225780D01*
X105002000Y-22225780D01*
X105144857Y-22273400D01*
X105240095Y-22368638D01*
X105287714Y-22463876D01*
X105335333Y-22654352D01*
X105335333Y-22797209D01*
X105287714Y-22987685D01*
X105240095Y-23082923D01*
X105144857Y-23178161D01*
X105002000Y-23225780D01*
X104763904Y-23225780D01*
X106240095Y-22225780D02*
X105763904Y-22225780D01*
X105716285Y-22701971D01*
X105763904Y-22654352D01*
X105859142Y-22606733D01*
X106097238Y-22606733D01*
X106192476Y-22654352D01*
X106240095Y-22701971D01*
X106287714Y-22797209D01*
X106287714Y-23035304D01*
X106240095Y-23130542D01*
X106192476Y-23178161D01*
X106097238Y-23225780D01*
X105859142Y-23225780D01*
X105763904Y-23178161D01*
X105716285Y-23130542D01*
%TO.C,R20*%
X16672380Y-49682857D02*
X16196190Y-50016190D01*
X16672380Y-50254285D02*
X15672380Y-50254285D01*
X15672380Y-49873333D01*
X15720000Y-49778095D01*
X15767619Y-49730476D01*
X15862857Y-49682857D01*
X16005714Y-49682857D01*
X16100952Y-49730476D01*
X16148571Y-49778095D01*
X16196190Y-49873333D01*
X16196190Y-50254285D01*
X15767619Y-49301904D02*
X15720000Y-49254285D01*
X15672380Y-49159047D01*
X15672380Y-48920952D01*
X15720000Y-48825714D01*
X15767619Y-48778095D01*
X15862857Y-48730476D01*
X15958095Y-48730476D01*
X16100952Y-48778095D01*
X16672380Y-49349523D01*
X16672380Y-48730476D01*
X15672380Y-48111428D02*
X15672380Y-48016190D01*
X15720000Y-47920952D01*
X15767619Y-47873333D01*
X15862857Y-47825714D01*
X16053333Y-47778095D01*
X16291428Y-47778095D01*
X16481904Y-47825714D01*
X16577142Y-47873333D01*
X16624761Y-47920952D01*
X16672380Y-48016190D01*
X16672380Y-48111428D01*
X16624761Y-48206666D01*
X16577142Y-48254285D01*
X16481904Y-48301904D01*
X16291428Y-48349523D01*
X16053333Y-48349523D01*
X15862857Y-48301904D01*
X15767619Y-48254285D01*
X15720000Y-48206666D01*
X15672380Y-48111428D01*
%TO.C,C25*%
X20406742Y-53246542D02*
X20359123Y-53294161D01*
X20216266Y-53341780D01*
X20121028Y-53341780D01*
X19978171Y-53294161D01*
X19882933Y-53198923D01*
X19835314Y-53103685D01*
X19787695Y-52913209D01*
X19787695Y-52770352D01*
X19835314Y-52579876D01*
X19882933Y-52484638D01*
X19978171Y-52389400D01*
X20121028Y-52341780D01*
X20216266Y-52341780D01*
X20359123Y-52389400D01*
X20406742Y-52437019D01*
X20787695Y-52437019D02*
X20835314Y-52389400D01*
X20930552Y-52341780D01*
X21168647Y-52341780D01*
X21263885Y-52389400D01*
X21311504Y-52437019D01*
X21359123Y-52532257D01*
X21359123Y-52627495D01*
X21311504Y-52770352D01*
X20740076Y-53341780D01*
X21359123Y-53341780D01*
X22263885Y-52341780D02*
X21787695Y-52341780D01*
X21740076Y-52817971D01*
X21787695Y-52770352D01*
X21882933Y-52722733D01*
X22121028Y-52722733D01*
X22216266Y-52770352D01*
X22263885Y-52817971D01*
X22311504Y-52913209D01*
X22311504Y-53151304D01*
X22263885Y-53246542D01*
X22216266Y-53294161D01*
X22121028Y-53341780D01*
X21882933Y-53341780D01*
X21787695Y-53294161D01*
X21740076Y-53246542D01*
%TO.C,L1*%
X39483333Y-43621380D02*
X39007142Y-43621380D01*
X39007142Y-42621380D01*
X40340476Y-43621380D02*
X39769047Y-43621380D01*
X40054761Y-43621380D02*
X40054761Y-42621380D01*
X39959523Y-42764238D01*
X39864285Y-42859476D01*
X39769047Y-42907095D01*
%TO.C,U9*%
X48562380Y-32791904D02*
X49371904Y-32791904D01*
X49467142Y-32744285D01*
X49514761Y-32696666D01*
X49562380Y-32601428D01*
X49562380Y-32410952D01*
X49514761Y-32315714D01*
X49467142Y-32268095D01*
X49371904Y-32220476D01*
X48562380Y-32220476D01*
X49562380Y-31696666D02*
X49562380Y-31506190D01*
X49514761Y-31410952D01*
X49467142Y-31363333D01*
X49324285Y-31268095D01*
X49133809Y-31220476D01*
X48752857Y-31220476D01*
X48657619Y-31268095D01*
X48610000Y-31315714D01*
X48562380Y-31410952D01*
X48562380Y-31601428D01*
X48610000Y-31696666D01*
X48657619Y-31744285D01*
X48752857Y-31791904D01*
X48990952Y-31791904D01*
X49086190Y-31744285D01*
X49133809Y-31696666D01*
X49181428Y-31601428D01*
X49181428Y-31410952D01*
X49133809Y-31315714D01*
X49086190Y-31268095D01*
X48990952Y-31220476D01*
%TO.C,R12*%
X25687142Y-20937380D02*
X25353809Y-20461190D01*
X25115714Y-20937380D02*
X25115714Y-19937380D01*
X25496666Y-19937380D01*
X25591904Y-19985000D01*
X25639523Y-20032619D01*
X25687142Y-20127857D01*
X25687142Y-20270714D01*
X25639523Y-20365952D01*
X25591904Y-20413571D01*
X25496666Y-20461190D01*
X25115714Y-20461190D01*
X26639523Y-20937380D02*
X26068095Y-20937380D01*
X26353809Y-20937380D02*
X26353809Y-19937380D01*
X26258571Y-20080238D01*
X26163333Y-20175476D01*
X26068095Y-20223095D01*
X27020476Y-20032619D02*
X27068095Y-19985000D01*
X27163333Y-19937380D01*
X27401428Y-19937380D01*
X27496666Y-19985000D01*
X27544285Y-20032619D01*
X27591904Y-20127857D01*
X27591904Y-20223095D01*
X27544285Y-20365952D01*
X26972857Y-20937380D01*
X27591904Y-20937380D01*
%TO.C,U4*%
X62271295Y-29490180D02*
X62271295Y-30299704D01*
X62318914Y-30394942D01*
X62366533Y-30442561D01*
X62461771Y-30490180D01*
X62652247Y-30490180D01*
X62747485Y-30442561D01*
X62795104Y-30394942D01*
X62842723Y-30299704D01*
X62842723Y-29490180D01*
X63747485Y-29823514D02*
X63747485Y-30490180D01*
X63509390Y-29442561D02*
X63271295Y-30156847D01*
X63890342Y-30156847D01*
%TO.C,C16*%
X65371542Y-40739057D02*
X65419161Y-40786676D01*
X65466780Y-40929533D01*
X65466780Y-41024771D01*
X65419161Y-41167628D01*
X65323923Y-41262866D01*
X65228685Y-41310485D01*
X65038209Y-41358104D01*
X64895352Y-41358104D01*
X64704876Y-41310485D01*
X64609638Y-41262866D01*
X64514400Y-41167628D01*
X64466780Y-41024771D01*
X64466780Y-40929533D01*
X64514400Y-40786676D01*
X64562019Y-40739057D01*
X65466780Y-39786676D02*
X65466780Y-40358104D01*
X65466780Y-40072390D02*
X64466780Y-40072390D01*
X64609638Y-40167628D01*
X64704876Y-40262866D01*
X64752495Y-40358104D01*
X64466780Y-38929533D02*
X64466780Y-39120009D01*
X64514400Y-39215247D01*
X64562019Y-39262866D01*
X64704876Y-39358104D01*
X64895352Y-39405723D01*
X65276304Y-39405723D01*
X65371542Y-39358104D01*
X65419161Y-39310485D01*
X65466780Y-39215247D01*
X65466780Y-39024771D01*
X65419161Y-38929533D01*
X65371542Y-38881914D01*
X65276304Y-38834295D01*
X65038209Y-38834295D01*
X64942971Y-38881914D01*
X64895352Y-38929533D01*
X64847733Y-39024771D01*
X64847733Y-39215247D01*
X64895352Y-39310485D01*
X64942971Y-39358104D01*
X65038209Y-39405723D01*
%TO.C,C17*%
X39295942Y-52829457D02*
X39343561Y-52877076D01*
X39391180Y-53019933D01*
X39391180Y-53115171D01*
X39343561Y-53258028D01*
X39248323Y-53353266D01*
X39153085Y-53400885D01*
X38962609Y-53448504D01*
X38819752Y-53448504D01*
X38629276Y-53400885D01*
X38534038Y-53353266D01*
X38438800Y-53258028D01*
X38391180Y-53115171D01*
X38391180Y-53019933D01*
X38438800Y-52877076D01*
X38486419Y-52829457D01*
X39391180Y-51877076D02*
X39391180Y-52448504D01*
X39391180Y-52162790D02*
X38391180Y-52162790D01*
X38534038Y-52258028D01*
X38629276Y-52353266D01*
X38676895Y-52448504D01*
X38391180Y-51543742D02*
X38391180Y-50877076D01*
X39391180Y-51305647D01*
%TO.C,J5*%
X51256980Y-53968133D02*
X51971266Y-53968133D01*
X52114123Y-54015752D01*
X52209361Y-54110990D01*
X52256980Y-54253847D01*
X52256980Y-54349085D01*
X51256980Y-53015752D02*
X51256980Y-53491942D01*
X51733171Y-53539561D01*
X51685552Y-53491942D01*
X51637933Y-53396704D01*
X51637933Y-53158609D01*
X51685552Y-53063371D01*
X51733171Y-53015752D01*
X51828409Y-52968133D01*
X52066504Y-52968133D01*
X52161742Y-53015752D01*
X52209361Y-53063371D01*
X52256980Y-53158609D01*
X52256980Y-53396704D01*
X52209361Y-53491942D01*
X52161742Y-53539561D01*
%TO.C,R13*%
X44051542Y-54315380D02*
X43718209Y-53839190D01*
X43480114Y-54315380D02*
X43480114Y-53315380D01*
X43861066Y-53315380D01*
X43956304Y-53363000D01*
X44003923Y-53410619D01*
X44051542Y-53505857D01*
X44051542Y-53648714D01*
X44003923Y-53743952D01*
X43956304Y-53791571D01*
X43861066Y-53839190D01*
X43480114Y-53839190D01*
X45003923Y-54315380D02*
X44432495Y-54315380D01*
X44718209Y-54315380D02*
X44718209Y-53315380D01*
X44622971Y-53458238D01*
X44527733Y-53553476D01*
X44432495Y-53601095D01*
X45337257Y-53315380D02*
X45956304Y-53315380D01*
X45622971Y-53696333D01*
X45765828Y-53696333D01*
X45861066Y-53743952D01*
X45908685Y-53791571D01*
X45956304Y-53886809D01*
X45956304Y-54124904D01*
X45908685Y-54220142D01*
X45861066Y-54267761D01*
X45765828Y-54315380D01*
X45480114Y-54315380D01*
X45384876Y-54267761D01*
X45337257Y-54220142D01*
%TO.C,C3*%
X110041542Y-52393466D02*
X110089161Y-52441085D01*
X110136780Y-52583942D01*
X110136780Y-52679180D01*
X110089161Y-52822038D01*
X109993923Y-52917276D01*
X109898685Y-52964895D01*
X109708209Y-53012514D01*
X109565352Y-53012514D01*
X109374876Y-52964895D01*
X109279638Y-52917276D01*
X109184400Y-52822038D01*
X109136780Y-52679180D01*
X109136780Y-52583942D01*
X109184400Y-52441085D01*
X109232019Y-52393466D01*
X109136780Y-52060133D02*
X109136780Y-51441085D01*
X109517733Y-51774419D01*
X109517733Y-51631561D01*
X109565352Y-51536323D01*
X109612971Y-51488704D01*
X109708209Y-51441085D01*
X109946304Y-51441085D01*
X110041542Y-51488704D01*
X110089161Y-51536323D01*
X110136780Y-51631561D01*
X110136780Y-51917276D01*
X110089161Y-52012514D01*
X110041542Y-52060133D01*
%TO.C,D10*%
X15542380Y-52764285D02*
X14542380Y-52764285D01*
X14542380Y-52526190D01*
X14590000Y-52383333D01*
X14685238Y-52288095D01*
X14780476Y-52240476D01*
X14970952Y-52192857D01*
X15113809Y-52192857D01*
X15304285Y-52240476D01*
X15399523Y-52288095D01*
X15494761Y-52383333D01*
X15542380Y-52526190D01*
X15542380Y-52764285D01*
X15542380Y-51240476D02*
X15542380Y-51811904D01*
X15542380Y-51526190D02*
X14542380Y-51526190D01*
X14685238Y-51621428D01*
X14780476Y-51716666D01*
X14828095Y-51811904D01*
X14542380Y-50621428D02*
X14542380Y-50526190D01*
X14590000Y-50430952D01*
X14637619Y-50383333D01*
X14732857Y-50335714D01*
X14923333Y-50288095D01*
X15161428Y-50288095D01*
X15351904Y-50335714D01*
X15447142Y-50383333D01*
X15494761Y-50430952D01*
X15542380Y-50526190D01*
X15542380Y-50621428D01*
X15494761Y-50716666D01*
X15447142Y-50764285D01*
X15351904Y-50811904D01*
X15161428Y-50859523D01*
X14923333Y-50859523D01*
X14732857Y-50811904D01*
X14637619Y-50764285D01*
X14590000Y-50716666D01*
X14542380Y-50621428D01*
%TO.C,U6*%
X61610895Y-41428180D02*
X61610895Y-42237704D01*
X61658514Y-42332942D01*
X61706133Y-42380561D01*
X61801371Y-42428180D01*
X61991847Y-42428180D01*
X62087085Y-42380561D01*
X62134704Y-42332942D01*
X62182323Y-42237704D01*
X62182323Y-41428180D01*
X63087085Y-41428180D02*
X62896609Y-41428180D01*
X62801371Y-41475800D01*
X62753752Y-41523419D01*
X62658514Y-41666276D01*
X62610895Y-41856752D01*
X62610895Y-42237704D01*
X62658514Y-42332942D01*
X62706133Y-42380561D01*
X62801371Y-42428180D01*
X62991847Y-42428180D01*
X63087085Y-42380561D01*
X63134704Y-42332942D01*
X63182323Y-42237704D01*
X63182323Y-41999609D01*
X63134704Y-41904371D01*
X63087085Y-41856752D01*
X62991847Y-41809133D01*
X62801371Y-41809133D01*
X62706133Y-41856752D01*
X62658514Y-41904371D01*
X62610895Y-41999609D01*
%TO.C,U8*%
X36511580Y-48447624D02*
X37321104Y-48447624D01*
X37416342Y-48400005D01*
X37463961Y-48352386D01*
X37511580Y-48257148D01*
X37511580Y-48066672D01*
X37463961Y-47971434D01*
X37416342Y-47923815D01*
X37321104Y-47876196D01*
X36511580Y-47876196D01*
X36940152Y-47257148D02*
X36892533Y-47352386D01*
X36844914Y-47400005D01*
X36749676Y-47447624D01*
X36702057Y-47447624D01*
X36606819Y-47400005D01*
X36559200Y-47352386D01*
X36511580Y-47257148D01*
X36511580Y-47066672D01*
X36559200Y-46971434D01*
X36606819Y-46923815D01*
X36702057Y-46876196D01*
X36749676Y-46876196D01*
X36844914Y-46923815D01*
X36892533Y-46971434D01*
X36940152Y-47066672D01*
X36940152Y-47257148D01*
X36987771Y-47352386D01*
X37035390Y-47400005D01*
X37130628Y-47447624D01*
X37321104Y-47447624D01*
X37416342Y-47400005D01*
X37463961Y-47352386D01*
X37511580Y-47257148D01*
X37511580Y-47066672D01*
X37463961Y-46971434D01*
X37416342Y-46923815D01*
X37321104Y-46876196D01*
X37130628Y-46876196D01*
X37035390Y-46923815D01*
X36987771Y-46971434D01*
X36940152Y-47066672D01*
%TO.C,D7*%
X110656704Y-34046180D02*
X110656704Y-33046180D01*
X110894800Y-33046180D01*
X111037657Y-33093800D01*
X111132895Y-33189038D01*
X111180514Y-33284276D01*
X111228133Y-33474752D01*
X111228133Y-33617609D01*
X111180514Y-33808085D01*
X111132895Y-33903323D01*
X111037657Y-33998561D01*
X110894800Y-34046180D01*
X110656704Y-34046180D01*
X111561466Y-33046180D02*
X112228133Y-33046180D01*
X111799561Y-34046180D01*
%TO.C,R6*%
X85178333Y-18806180D02*
X84845000Y-18329990D01*
X84606904Y-18806180D02*
X84606904Y-17806180D01*
X84987857Y-17806180D01*
X85083095Y-17853800D01*
X85130714Y-17901419D01*
X85178333Y-17996657D01*
X85178333Y-18139514D01*
X85130714Y-18234752D01*
X85083095Y-18282371D01*
X84987857Y-18329990D01*
X84606904Y-18329990D01*
X86035476Y-17806180D02*
X85845000Y-17806180D01*
X85749761Y-17853800D01*
X85702142Y-17901419D01*
X85606904Y-18044276D01*
X85559285Y-18234752D01*
X85559285Y-18615704D01*
X85606904Y-18710942D01*
X85654523Y-18758561D01*
X85749761Y-18806180D01*
X85940238Y-18806180D01*
X86035476Y-18758561D01*
X86083095Y-18710942D01*
X86130714Y-18615704D01*
X86130714Y-18377609D01*
X86083095Y-18282371D01*
X86035476Y-18234752D01*
X85940238Y-18187133D01*
X85749761Y-18187133D01*
X85654523Y-18234752D01*
X85606904Y-18282371D01*
X85559285Y-18377609D01*
%TO.C,C20*%
X39936742Y-28210542D02*
X39889123Y-28258161D01*
X39746266Y-28305780D01*
X39651028Y-28305780D01*
X39508171Y-28258161D01*
X39412933Y-28162923D01*
X39365314Y-28067685D01*
X39317695Y-27877209D01*
X39317695Y-27734352D01*
X39365314Y-27543876D01*
X39412933Y-27448638D01*
X39508171Y-27353400D01*
X39651028Y-27305780D01*
X39746266Y-27305780D01*
X39889123Y-27353400D01*
X39936742Y-27401019D01*
X40317695Y-27401019D02*
X40365314Y-27353400D01*
X40460552Y-27305780D01*
X40698647Y-27305780D01*
X40793885Y-27353400D01*
X40841504Y-27401019D01*
X40889123Y-27496257D01*
X40889123Y-27591495D01*
X40841504Y-27734352D01*
X40270076Y-28305780D01*
X40889123Y-28305780D01*
X41508171Y-27305780D02*
X41603409Y-27305780D01*
X41698647Y-27353400D01*
X41746266Y-27401019D01*
X41793885Y-27496257D01*
X41841504Y-27686733D01*
X41841504Y-27924828D01*
X41793885Y-28115304D01*
X41746266Y-28210542D01*
X41698647Y-28258161D01*
X41603409Y-28305780D01*
X41508171Y-28305780D01*
X41412933Y-28258161D01*
X41365314Y-28210542D01*
X41317695Y-28115304D01*
X41270076Y-27924828D01*
X41270076Y-27686733D01*
X41317695Y-27496257D01*
X41365314Y-27401019D01*
X41412933Y-27353400D01*
X41508171Y-27305780D01*
%TO.C,U2*%
X67706895Y-29998180D02*
X67706895Y-30807704D01*
X67754514Y-30902942D01*
X67802133Y-30950561D01*
X67897371Y-30998180D01*
X68087847Y-30998180D01*
X68183085Y-30950561D01*
X68230704Y-30902942D01*
X68278323Y-30807704D01*
X68278323Y-29998180D01*
X68706895Y-30093419D02*
X68754514Y-30045800D01*
X68849752Y-29998180D01*
X69087847Y-29998180D01*
X69183085Y-30045800D01*
X69230704Y-30093419D01*
X69278323Y-30188657D01*
X69278323Y-30283895D01*
X69230704Y-30426752D01*
X68659276Y-30998180D01*
X69278323Y-30998180D01*
%TO.C,R15*%
X55841942Y-37114980D02*
X55508609Y-36638790D01*
X55270514Y-37114980D02*
X55270514Y-36114980D01*
X55651466Y-36114980D01*
X55746704Y-36162600D01*
X55794323Y-36210219D01*
X55841942Y-36305457D01*
X55841942Y-36448314D01*
X55794323Y-36543552D01*
X55746704Y-36591171D01*
X55651466Y-36638790D01*
X55270514Y-36638790D01*
X56794323Y-37114980D02*
X56222895Y-37114980D01*
X56508609Y-37114980D02*
X56508609Y-36114980D01*
X56413371Y-36257838D01*
X56318133Y-36353076D01*
X56222895Y-36400695D01*
X57699085Y-36114980D02*
X57222895Y-36114980D01*
X57175276Y-36591171D01*
X57222895Y-36543552D01*
X57318133Y-36495933D01*
X57556228Y-36495933D01*
X57651466Y-36543552D01*
X57699085Y-36591171D01*
X57746704Y-36686409D01*
X57746704Y-36924504D01*
X57699085Y-37019742D01*
X57651466Y-37067361D01*
X57556228Y-37114980D01*
X57318133Y-37114980D01*
X57222895Y-37067361D01*
X57175276Y-37019742D01*
%TO.C,R8*%
X88326780Y-24159266D02*
X87850590Y-24492600D01*
X88326780Y-24730695D02*
X87326780Y-24730695D01*
X87326780Y-24349742D01*
X87374400Y-24254504D01*
X87422019Y-24206885D01*
X87517257Y-24159266D01*
X87660114Y-24159266D01*
X87755352Y-24206885D01*
X87802971Y-24254504D01*
X87850590Y-24349742D01*
X87850590Y-24730695D01*
X87755352Y-23587838D02*
X87707733Y-23683076D01*
X87660114Y-23730695D01*
X87564876Y-23778314D01*
X87517257Y-23778314D01*
X87422019Y-23730695D01*
X87374400Y-23683076D01*
X87326780Y-23587838D01*
X87326780Y-23397361D01*
X87374400Y-23302123D01*
X87422019Y-23254504D01*
X87517257Y-23206885D01*
X87564876Y-23206885D01*
X87660114Y-23254504D01*
X87707733Y-23302123D01*
X87755352Y-23397361D01*
X87755352Y-23587838D01*
X87802971Y-23683076D01*
X87850590Y-23730695D01*
X87945828Y-23778314D01*
X88136304Y-23778314D01*
X88231542Y-23730695D01*
X88279161Y-23683076D01*
X88326780Y-23587838D01*
X88326780Y-23397361D01*
X88279161Y-23302123D01*
X88231542Y-23254504D01*
X88136304Y-23206885D01*
X87945828Y-23206885D01*
X87850590Y-23254504D01*
X87802971Y-23302123D01*
X87755352Y-23397361D01*
%TO.C,D6*%
X104735180Y-35957495D02*
X103735180Y-35957495D01*
X103735180Y-35719400D01*
X103782800Y-35576542D01*
X103878038Y-35481304D01*
X103973276Y-35433685D01*
X104163752Y-35386066D01*
X104306609Y-35386066D01*
X104497085Y-35433685D01*
X104592323Y-35481304D01*
X104687561Y-35576542D01*
X104735180Y-35719400D01*
X104735180Y-35957495D01*
X103735180Y-34528923D02*
X103735180Y-34719400D01*
X103782800Y-34814638D01*
X103830419Y-34862257D01*
X103973276Y-34957495D01*
X104163752Y-35005114D01*
X104544704Y-35005114D01*
X104639942Y-34957495D01*
X104687561Y-34909876D01*
X104735180Y-34814638D01*
X104735180Y-34624161D01*
X104687561Y-34528923D01*
X104639942Y-34481304D01*
X104544704Y-34433685D01*
X104306609Y-34433685D01*
X104211371Y-34481304D01*
X104163752Y-34528923D01*
X104116133Y-34624161D01*
X104116133Y-34814638D01*
X104163752Y-34909876D01*
X104211371Y-34957495D01*
X104306609Y-35005114D01*
%TO.C,U10*%
X110582380Y-30308095D02*
X111391904Y-30308095D01*
X111487142Y-30260476D01*
X111534761Y-30212857D01*
X111582380Y-30117619D01*
X111582380Y-29927142D01*
X111534761Y-29831904D01*
X111487142Y-29784285D01*
X111391904Y-29736666D01*
X110582380Y-29736666D01*
X111582380Y-28736666D02*
X111582380Y-29308095D01*
X111582380Y-29022380D02*
X110582380Y-29022380D01*
X110725238Y-29117619D01*
X110820476Y-29212857D01*
X110868095Y-29308095D01*
X110582380Y-28117619D02*
X110582380Y-28022380D01*
X110630000Y-27927142D01*
X110677619Y-27879523D01*
X110772857Y-27831904D01*
X110963333Y-27784285D01*
X111201428Y-27784285D01*
X111391904Y-27831904D01*
X111487142Y-27879523D01*
X111534761Y-27927142D01*
X111582380Y-28022380D01*
X111582380Y-28117619D01*
X111534761Y-28212857D01*
X111487142Y-28260476D01*
X111391904Y-28308095D01*
X111201428Y-28355714D01*
X110963333Y-28355714D01*
X110772857Y-28308095D01*
X110677619Y-28260476D01*
X110630000Y-28212857D01*
X110582380Y-28117619D01*
%TO.C,R7*%
X59962380Y-31956666D02*
X59486190Y-32290000D01*
X59962380Y-32528095D02*
X58962380Y-32528095D01*
X58962380Y-32147142D01*
X59010000Y-32051904D01*
X59057619Y-32004285D01*
X59152857Y-31956666D01*
X59295714Y-31956666D01*
X59390952Y-32004285D01*
X59438571Y-32051904D01*
X59486190Y-32147142D01*
X59486190Y-32528095D01*
X58962380Y-31623333D02*
X58962380Y-30956666D01*
X59962380Y-31385238D01*
%TO.C,R17*%
X28201942Y-42682180D02*
X27868609Y-42205990D01*
X27630514Y-42682180D02*
X27630514Y-41682180D01*
X28011466Y-41682180D01*
X28106704Y-41729800D01*
X28154323Y-41777419D01*
X28201942Y-41872657D01*
X28201942Y-42015514D01*
X28154323Y-42110752D01*
X28106704Y-42158371D01*
X28011466Y-42205990D01*
X27630514Y-42205990D01*
X29154323Y-42682180D02*
X28582895Y-42682180D01*
X28868609Y-42682180D02*
X28868609Y-41682180D01*
X28773371Y-41825038D01*
X28678133Y-41920276D01*
X28582895Y-41967895D01*
X29487657Y-41682180D02*
X30154323Y-41682180D01*
X29725752Y-42682180D01*
%TO.C,R11*%
X42324342Y-48930580D02*
X41991009Y-48454390D01*
X41752914Y-48930580D02*
X41752914Y-47930580D01*
X42133866Y-47930580D01*
X42229104Y-47978200D01*
X42276723Y-48025819D01*
X42324342Y-48121057D01*
X42324342Y-48263914D01*
X42276723Y-48359152D01*
X42229104Y-48406771D01*
X42133866Y-48454390D01*
X41752914Y-48454390D01*
X43276723Y-48930580D02*
X42705295Y-48930580D01*
X42991009Y-48930580D02*
X42991009Y-47930580D01*
X42895771Y-48073438D01*
X42800533Y-48168676D01*
X42705295Y-48216295D01*
X44229104Y-48930580D02*
X43657676Y-48930580D01*
X43943390Y-48930580D02*
X43943390Y-47930580D01*
X43848152Y-48073438D01*
X43752914Y-48168676D01*
X43657676Y-48216295D01*
%TO.C,R1*%
X32132533Y-29220180D02*
X31799200Y-28743990D01*
X31561104Y-29220180D02*
X31561104Y-28220180D01*
X31942057Y-28220180D01*
X32037295Y-28267800D01*
X32084914Y-28315419D01*
X32132533Y-28410657D01*
X32132533Y-28553514D01*
X32084914Y-28648752D01*
X32037295Y-28696371D01*
X31942057Y-28743990D01*
X31561104Y-28743990D01*
X33084914Y-29220180D02*
X32513485Y-29220180D01*
X32799200Y-29220180D02*
X32799200Y-28220180D01*
X32703961Y-28363038D01*
X32608723Y-28458276D01*
X32513485Y-28505895D01*
%TO.C,C4*%
X38533333Y-25670542D02*
X38485714Y-25718161D01*
X38342857Y-25765780D01*
X38247619Y-25765780D01*
X38104761Y-25718161D01*
X38009523Y-25622923D01*
X37961904Y-25527685D01*
X37914285Y-25337209D01*
X37914285Y-25194352D01*
X37961904Y-25003876D01*
X38009523Y-24908638D01*
X38104761Y-24813400D01*
X38247619Y-24765780D01*
X38342857Y-24765780D01*
X38485714Y-24813400D01*
X38533333Y-24861019D01*
X39390476Y-25099114D02*
X39390476Y-25765780D01*
X39152380Y-24718161D02*
X38914285Y-25432447D01*
X39533333Y-25432447D01*
%TO.C,R5*%
X85888380Y-24159266D02*
X85412190Y-24492600D01*
X85888380Y-24730695D02*
X84888380Y-24730695D01*
X84888380Y-24349742D01*
X84936000Y-24254504D01*
X84983619Y-24206885D01*
X85078857Y-24159266D01*
X85221714Y-24159266D01*
X85316952Y-24206885D01*
X85364571Y-24254504D01*
X85412190Y-24349742D01*
X85412190Y-24730695D01*
X84888380Y-23254504D02*
X84888380Y-23730695D01*
X85364571Y-23778314D01*
X85316952Y-23730695D01*
X85269333Y-23635457D01*
X85269333Y-23397361D01*
X85316952Y-23302123D01*
X85364571Y-23254504D01*
X85459809Y-23206885D01*
X85697904Y-23206885D01*
X85793142Y-23254504D01*
X85840761Y-23302123D01*
X85888380Y-23397361D01*
X85888380Y-23635457D01*
X85840761Y-23730695D01*
X85793142Y-23778314D01*
%TO.C,C7*%
X89485733Y-43247342D02*
X89438114Y-43294961D01*
X89295257Y-43342580D01*
X89200019Y-43342580D01*
X89057161Y-43294961D01*
X88961923Y-43199723D01*
X88914304Y-43104485D01*
X88866685Y-42914009D01*
X88866685Y-42771152D01*
X88914304Y-42580676D01*
X88961923Y-42485438D01*
X89057161Y-42390200D01*
X89200019Y-42342580D01*
X89295257Y-42342580D01*
X89438114Y-42390200D01*
X89485733Y-42437819D01*
X89819066Y-42342580D02*
X90485733Y-42342580D01*
X90057161Y-43342580D01*
%TO.C,U11*%
X25897180Y-46973095D02*
X26706704Y-46973095D01*
X26801942Y-46925476D01*
X26849561Y-46877857D01*
X26897180Y-46782619D01*
X26897180Y-46592142D01*
X26849561Y-46496904D01*
X26801942Y-46449285D01*
X26706704Y-46401666D01*
X25897180Y-46401666D01*
X26897180Y-45401666D02*
X26897180Y-45973095D01*
X26897180Y-45687380D02*
X25897180Y-45687380D01*
X26040038Y-45782619D01*
X26135276Y-45877857D01*
X26182895Y-45973095D01*
X26897180Y-44449285D02*
X26897180Y-45020714D01*
X26897180Y-44735000D02*
X25897180Y-44735000D01*
X26040038Y-44830238D01*
X26135276Y-44925476D01*
X26182895Y-45020714D01*
%TO.C,C23*%
X26277142Y-18402857D02*
X26324761Y-18450476D01*
X26372380Y-18593333D01*
X26372380Y-18688571D01*
X26324761Y-18831428D01*
X26229523Y-18926666D01*
X26134285Y-18974285D01*
X25943809Y-19021904D01*
X25800952Y-19021904D01*
X25610476Y-18974285D01*
X25515238Y-18926666D01*
X25420000Y-18831428D01*
X25372380Y-18688571D01*
X25372380Y-18593333D01*
X25420000Y-18450476D01*
X25467619Y-18402857D01*
X25467619Y-18021904D02*
X25420000Y-17974285D01*
X25372380Y-17879047D01*
X25372380Y-17640952D01*
X25420000Y-17545714D01*
X25467619Y-17498095D01*
X25562857Y-17450476D01*
X25658095Y-17450476D01*
X25800952Y-17498095D01*
X26372380Y-18069523D01*
X26372380Y-17450476D01*
X25372380Y-17117142D02*
X25372380Y-16498095D01*
X25753333Y-16831428D01*
X25753333Y-16688571D01*
X25800952Y-16593333D01*
X25848571Y-16545714D01*
X25943809Y-16498095D01*
X26181904Y-16498095D01*
X26277142Y-16545714D01*
X26324761Y-16593333D01*
X26372380Y-16688571D01*
X26372380Y-16974285D01*
X26324761Y-17069523D01*
X26277142Y-17117142D01*
%TO.C,R4*%
X103402380Y-52821666D02*
X102926190Y-53155000D01*
X103402380Y-53393095D02*
X102402380Y-53393095D01*
X102402380Y-53012142D01*
X102450000Y-52916904D01*
X102497619Y-52869285D01*
X102592857Y-52821666D01*
X102735714Y-52821666D01*
X102830952Y-52869285D01*
X102878571Y-52916904D01*
X102926190Y-53012142D01*
X102926190Y-53393095D01*
X102735714Y-51964523D02*
X103402380Y-51964523D01*
X102354761Y-52202619D02*
X103069047Y-52440714D01*
X103069047Y-51821666D01*
%TO.C,C11*%
X58092742Y-34010542D02*
X58045123Y-34058161D01*
X57902266Y-34105780D01*
X57807028Y-34105780D01*
X57664171Y-34058161D01*
X57568933Y-33962923D01*
X57521314Y-33867685D01*
X57473695Y-33677209D01*
X57473695Y-33534352D01*
X57521314Y-33343876D01*
X57568933Y-33248638D01*
X57664171Y-33153400D01*
X57807028Y-33105780D01*
X57902266Y-33105780D01*
X58045123Y-33153400D01*
X58092742Y-33201019D01*
X59045123Y-34105780D02*
X58473695Y-34105780D01*
X58759409Y-34105780D02*
X58759409Y-33105780D01*
X58664171Y-33248638D01*
X58568933Y-33343876D01*
X58473695Y-33391495D01*
X59997504Y-34105780D02*
X59426076Y-34105780D01*
X59711790Y-34105780D02*
X59711790Y-33105780D01*
X59616552Y-33248638D01*
X59521314Y-33343876D01*
X59426076Y-33391495D01*
%TO.C,C21*%
X105417942Y-25111742D02*
X105370323Y-25159361D01*
X105227466Y-25206980D01*
X105132228Y-25206980D01*
X104989371Y-25159361D01*
X104894133Y-25064123D01*
X104846514Y-24968885D01*
X104798895Y-24778409D01*
X104798895Y-24635552D01*
X104846514Y-24445076D01*
X104894133Y-24349838D01*
X104989371Y-24254600D01*
X105132228Y-24206980D01*
X105227466Y-24206980D01*
X105370323Y-24254600D01*
X105417942Y-24302219D01*
X105798895Y-24302219D02*
X105846514Y-24254600D01*
X105941752Y-24206980D01*
X106179847Y-24206980D01*
X106275085Y-24254600D01*
X106322704Y-24302219D01*
X106370323Y-24397457D01*
X106370323Y-24492695D01*
X106322704Y-24635552D01*
X105751276Y-25206980D01*
X106370323Y-25206980D01*
X107322704Y-25206980D02*
X106751276Y-25206980D01*
X107036990Y-25206980D02*
X107036990Y-24206980D01*
X106941752Y-24349838D01*
X106846514Y-24445076D01*
X106751276Y-24492695D01*
%TO.C,C18*%
X36974342Y-35252657D02*
X37021961Y-35300276D01*
X37069580Y-35443133D01*
X37069580Y-35538371D01*
X37021961Y-35681228D01*
X36926723Y-35776466D01*
X36831485Y-35824085D01*
X36641009Y-35871704D01*
X36498152Y-35871704D01*
X36307676Y-35824085D01*
X36212438Y-35776466D01*
X36117200Y-35681228D01*
X36069580Y-35538371D01*
X36069580Y-35443133D01*
X36117200Y-35300276D01*
X36164819Y-35252657D01*
X37069580Y-34300276D02*
X37069580Y-34871704D01*
X37069580Y-34585990D02*
X36069580Y-34585990D01*
X36212438Y-34681228D01*
X36307676Y-34776466D01*
X36355295Y-34871704D01*
X36498152Y-33728847D02*
X36450533Y-33824085D01*
X36402914Y-33871704D01*
X36307676Y-33919323D01*
X36260057Y-33919323D01*
X36164819Y-33871704D01*
X36117200Y-33824085D01*
X36069580Y-33728847D01*
X36069580Y-33538371D01*
X36117200Y-33443133D01*
X36164819Y-33395514D01*
X36260057Y-33347895D01*
X36307676Y-33347895D01*
X36402914Y-33395514D01*
X36450533Y-33443133D01*
X36498152Y-33538371D01*
X36498152Y-33728847D01*
X36545771Y-33824085D01*
X36593390Y-33871704D01*
X36688628Y-33919323D01*
X36879104Y-33919323D01*
X36974342Y-33871704D01*
X37021961Y-33824085D01*
X37069580Y-33728847D01*
X37069580Y-33538371D01*
X37021961Y-33443133D01*
X36974342Y-33395514D01*
X36879104Y-33347895D01*
X36688628Y-33347895D01*
X36593390Y-33395514D01*
X36545771Y-33443133D01*
X36498152Y-33538371D01*
%TO.C,C19*%
X46321542Y-52016657D02*
X46369161Y-52064276D01*
X46416780Y-52207133D01*
X46416780Y-52302371D01*
X46369161Y-52445228D01*
X46273923Y-52540466D01*
X46178685Y-52588085D01*
X45988209Y-52635704D01*
X45845352Y-52635704D01*
X45654876Y-52588085D01*
X45559638Y-52540466D01*
X45464400Y-52445228D01*
X45416780Y-52302371D01*
X45416780Y-52207133D01*
X45464400Y-52064276D01*
X45512019Y-52016657D01*
X46416780Y-51064276D02*
X46416780Y-51635704D01*
X46416780Y-51349990D02*
X45416780Y-51349990D01*
X45559638Y-51445228D01*
X45654876Y-51540466D01*
X45702495Y-51635704D01*
X46416780Y-50588085D02*
X46416780Y-50397609D01*
X46369161Y-50302371D01*
X46321542Y-50254752D01*
X46178685Y-50159514D01*
X45988209Y-50111895D01*
X45607257Y-50111895D01*
X45512019Y-50159514D01*
X45464400Y-50207133D01*
X45416780Y-50302371D01*
X45416780Y-50492847D01*
X45464400Y-50588085D01*
X45512019Y-50635704D01*
X45607257Y-50683323D01*
X45845352Y-50683323D01*
X45940590Y-50635704D01*
X45988209Y-50588085D01*
X46035828Y-50492847D01*
X46035828Y-50302371D01*
X45988209Y-50207133D01*
X45940590Y-50159514D01*
X45845352Y-50111895D01*
%TO.C,R9*%
X87107580Y-24159266D02*
X86631390Y-24492600D01*
X87107580Y-24730695D02*
X86107580Y-24730695D01*
X86107580Y-24349742D01*
X86155200Y-24254504D01*
X86202819Y-24206885D01*
X86298057Y-24159266D01*
X86440914Y-24159266D01*
X86536152Y-24206885D01*
X86583771Y-24254504D01*
X86631390Y-24349742D01*
X86631390Y-24730695D01*
X87107580Y-23683076D02*
X87107580Y-23492600D01*
X87059961Y-23397361D01*
X87012342Y-23349742D01*
X86869485Y-23254504D01*
X86679009Y-23206885D01*
X86298057Y-23206885D01*
X86202819Y-23254504D01*
X86155200Y-23302123D01*
X86107580Y-23397361D01*
X86107580Y-23587838D01*
X86155200Y-23683076D01*
X86202819Y-23730695D01*
X86298057Y-23778314D01*
X86536152Y-23778314D01*
X86631390Y-23730695D01*
X86679009Y-23683076D01*
X86726628Y-23587838D01*
X86726628Y-23397361D01*
X86679009Y-23302123D01*
X86631390Y-23254504D01*
X86536152Y-23206885D01*
%TO.C,C15*%
X58133742Y-35525742D02*
X58086123Y-35573361D01*
X57943266Y-35620980D01*
X57848028Y-35620980D01*
X57705171Y-35573361D01*
X57609933Y-35478123D01*
X57562314Y-35382885D01*
X57514695Y-35192409D01*
X57514695Y-35049552D01*
X57562314Y-34859076D01*
X57609933Y-34763838D01*
X57705171Y-34668600D01*
X57848028Y-34620980D01*
X57943266Y-34620980D01*
X58086123Y-34668600D01*
X58133742Y-34716219D01*
X59086123Y-35620980D02*
X58514695Y-35620980D01*
X58800409Y-35620980D02*
X58800409Y-34620980D01*
X58705171Y-34763838D01*
X58609933Y-34859076D01*
X58514695Y-34906695D01*
X59990885Y-34620980D02*
X59514695Y-34620980D01*
X59467076Y-35097171D01*
X59514695Y-35049552D01*
X59609933Y-35001933D01*
X59848028Y-35001933D01*
X59943266Y-35049552D01*
X59990885Y-35097171D01*
X60038504Y-35192409D01*
X60038504Y-35430504D01*
X59990885Y-35525742D01*
X59943266Y-35573361D01*
X59848028Y-35620980D01*
X59609933Y-35620980D01*
X59514695Y-35573361D01*
X59467076Y-35525742D01*
%TO.C,R10*%
X42324342Y-45476180D02*
X41991009Y-44999990D01*
X41752914Y-45476180D02*
X41752914Y-44476180D01*
X42133866Y-44476180D01*
X42229104Y-44523800D01*
X42276723Y-44571419D01*
X42324342Y-44666657D01*
X42324342Y-44809514D01*
X42276723Y-44904752D01*
X42229104Y-44952371D01*
X42133866Y-44999990D01*
X41752914Y-44999990D01*
X43276723Y-45476180D02*
X42705295Y-45476180D01*
X42991009Y-45476180D02*
X42991009Y-44476180D01*
X42895771Y-44619038D01*
X42800533Y-44714276D01*
X42705295Y-44761895D01*
X43895771Y-44476180D02*
X43991009Y-44476180D01*
X44086247Y-44523800D01*
X44133866Y-44571419D01*
X44181485Y-44666657D01*
X44229104Y-44857133D01*
X44229104Y-45095228D01*
X44181485Y-45285704D01*
X44133866Y-45380942D01*
X44086247Y-45428561D01*
X43991009Y-45476180D01*
X43895771Y-45476180D01*
X43800533Y-45428561D01*
X43752914Y-45380942D01*
X43705295Y-45285704D01*
X43657676Y-45095228D01*
X43657676Y-44857133D01*
X43705295Y-44666657D01*
X43752914Y-44571419D01*
X43800533Y-44523800D01*
X43895771Y-44476180D01*
%TO.C,C2*%
X17654533Y-35972342D02*
X17606914Y-36019961D01*
X17464057Y-36067580D01*
X17368819Y-36067580D01*
X17225961Y-36019961D01*
X17130723Y-35924723D01*
X17083104Y-35829485D01*
X17035485Y-35639009D01*
X17035485Y-35496152D01*
X17083104Y-35305676D01*
X17130723Y-35210438D01*
X17225961Y-35115200D01*
X17368819Y-35067580D01*
X17464057Y-35067580D01*
X17606914Y-35115200D01*
X17654533Y-35162819D01*
X18035485Y-35162819D02*
X18083104Y-35115200D01*
X18178342Y-35067580D01*
X18416438Y-35067580D01*
X18511676Y-35115200D01*
X18559295Y-35162819D01*
X18606914Y-35258057D01*
X18606914Y-35353295D01*
X18559295Y-35496152D01*
X17987866Y-36067580D01*
X18606914Y-36067580D01*
%TO.C,D1*%
X29032380Y-18380695D02*
X28032380Y-18380695D01*
X28032380Y-18142600D01*
X28080000Y-17999742D01*
X28175238Y-17904504D01*
X28270476Y-17856885D01*
X28460952Y-17809266D01*
X28603809Y-17809266D01*
X28794285Y-17856885D01*
X28889523Y-17904504D01*
X28984761Y-17999742D01*
X29032380Y-18142600D01*
X29032380Y-18380695D01*
X29032380Y-16856885D02*
X29032380Y-17428314D01*
X29032380Y-17142600D02*
X28032380Y-17142600D01*
X28175238Y-17237838D01*
X28270476Y-17333076D01*
X28318095Y-17428314D01*
%TO.C,C22*%
X101439542Y-25476257D02*
X101487161Y-25523876D01*
X101534780Y-25666733D01*
X101534780Y-25761971D01*
X101487161Y-25904828D01*
X101391923Y-26000066D01*
X101296685Y-26047685D01*
X101106209Y-26095304D01*
X100963352Y-26095304D01*
X100772876Y-26047685D01*
X100677638Y-26000066D01*
X100582400Y-25904828D01*
X100534780Y-25761971D01*
X100534780Y-25666733D01*
X100582400Y-25523876D01*
X100630019Y-25476257D01*
X100630019Y-25095304D02*
X100582400Y-25047685D01*
X100534780Y-24952447D01*
X100534780Y-24714352D01*
X100582400Y-24619114D01*
X100630019Y-24571495D01*
X100725257Y-24523876D01*
X100820495Y-24523876D01*
X100963352Y-24571495D01*
X101534780Y-25142923D01*
X101534780Y-24523876D01*
X100630019Y-24142923D02*
X100582400Y-24095304D01*
X100534780Y-24000066D01*
X100534780Y-23761971D01*
X100582400Y-23666733D01*
X100630019Y-23619114D01*
X100725257Y-23571495D01*
X100820495Y-23571495D01*
X100963352Y-23619114D01*
X101534780Y-24190542D01*
X101534780Y-23571495D01*
%TO.C,J4*%
X82493980Y-18585533D02*
X83208266Y-18585533D01*
X83351123Y-18633152D01*
X83446361Y-18728390D01*
X83493980Y-18871247D01*
X83493980Y-18966485D01*
X82827314Y-17680771D02*
X83493980Y-17680771D01*
X82446361Y-17918866D02*
X83160647Y-18156961D01*
X83160647Y-17537914D01*
%TO.C,C5*%
X38533333Y-26991342D02*
X38485714Y-27038961D01*
X38342857Y-27086580D01*
X38247619Y-27086580D01*
X38104761Y-27038961D01*
X38009523Y-26943723D01*
X37961904Y-26848485D01*
X37914285Y-26658009D01*
X37914285Y-26515152D01*
X37961904Y-26324676D01*
X38009523Y-26229438D01*
X38104761Y-26134200D01*
X38247619Y-26086580D01*
X38342857Y-26086580D01*
X38485714Y-26134200D01*
X38533333Y-26181819D01*
X39438095Y-26086580D02*
X38961904Y-26086580D01*
X38914285Y-26562771D01*
X38961904Y-26515152D01*
X39057142Y-26467533D01*
X39295238Y-26467533D01*
X39390476Y-26515152D01*
X39438095Y-26562771D01*
X39485714Y-26658009D01*
X39485714Y-26896104D01*
X39438095Y-26991342D01*
X39390476Y-27038961D01*
X39295238Y-27086580D01*
X39057142Y-27086580D01*
X38961904Y-27038961D01*
X38914285Y-26991342D01*
%TO.C,J3*%
X40085980Y-18103333D02*
X40800266Y-18103333D01*
X40943123Y-18150952D01*
X41038361Y-18246190D01*
X41085980Y-18389047D01*
X41085980Y-18484285D01*
X40085980Y-17722380D02*
X40085980Y-17103333D01*
X40466933Y-17436666D01*
X40466933Y-17293809D01*
X40514552Y-17198571D01*
X40562171Y-17150952D01*
X40657409Y-17103333D01*
X40895504Y-17103333D01*
X40990742Y-17150952D01*
X41038361Y-17198571D01*
X41085980Y-17293809D01*
X41085980Y-17579523D01*
X41038361Y-17674761D01*
X40990742Y-17722380D01*
D11*
%TO.C,J2*%
X88823000Y-54964800D02*
X88823000Y-52304800D01*
X76063000Y-54964800D02*
X88823000Y-54964800D01*
X76063000Y-54964800D02*
X76063000Y-52304800D01*
X76063000Y-52304800D02*
X88823000Y-52304800D01*
X73463000Y-52304800D02*
X74793000Y-52304800D01*
X73463000Y-53634800D02*
X73463000Y-52304800D01*
%TO.C,TP31*%
X88105200Y-47970200D02*
G75*
G03*
X88105200Y-47970200I-1450000J0D01*
G01*
%TO.C,TP35*%
X95318800Y-47970200D02*
G75*
G03*
X95318800Y-47970200I-1450000J0D01*
G01*
%TO.C,TP11*%
X75960000Y-23730000D02*
G75*
G03*
X75960000Y-23730000I-1450000J0D01*
G01*
%TO.C,D9*%
X16070200Y-55779900D02*
X17540200Y-55779900D01*
X17540200Y-55779900D02*
X17540200Y-53494900D01*
X16070200Y-53494900D02*
X16070200Y-55779900D01*
%TO.C,JP3*%
X67335200Y-21363000D02*
X67335200Y-25463000D01*
X65135200Y-22113000D02*
X64835200Y-21813000D01*
X64835200Y-21813000D02*
X64835200Y-22413000D01*
X65135200Y-22113000D02*
X64835200Y-22413000D01*
X67335200Y-25463000D02*
X65335200Y-25463000D01*
X65335200Y-21363000D02*
X67335200Y-21363000D01*
X65335200Y-25463000D02*
X65335200Y-21363000D01*
%TO.C,TP27*%
X84498400Y-47970200D02*
G75*
G03*
X84498400Y-47970200I-1450000J0D01*
G01*
%TO.C,D4*%
X108665200Y-25238600D02*
X108665200Y-22688600D01*
X110365200Y-25238600D02*
X110365200Y-22688600D01*
X108665200Y-25238600D02*
X110365200Y-25238600D01*
%TO.C,JP4*%
X64835200Y-16987000D02*
X64835200Y-17587000D01*
X65335200Y-20637000D02*
X65335200Y-16537000D01*
X65135200Y-17287000D02*
X64835200Y-17587000D01*
X65135200Y-17287000D02*
X64835200Y-16987000D01*
X65335200Y-16537000D02*
X67335200Y-16537000D01*
X67335200Y-20637000D02*
X65335200Y-20637000D01*
X67335200Y-16537000D02*
X67335200Y-20637000D01*
%TO.C,Q1*%
X88308500Y-17083400D02*
X88958500Y-17083400D01*
X88308500Y-20203400D02*
X87658500Y-20203400D01*
X88308500Y-20203400D02*
X89983500Y-20203400D01*
X88308500Y-17083400D02*
X87658500Y-17083400D01*
%TO.C,U5*%
X70311800Y-41066800D02*
X72261800Y-41066800D01*
X70311800Y-46186800D02*
X68361800Y-46186800D01*
X70311800Y-41066800D02*
X66861800Y-41066800D01*
X70311800Y-46186800D02*
X72261800Y-46186800D01*
%TO.C,TP7*%
X105377200Y-50459400D02*
G75*
G03*
X105377200Y-50459400I-1450000J0D01*
G01*
%TO.C,TP2*%
X99586000Y-23891000D02*
G75*
G03*
X99586000Y-23891000I-1450000J0D01*
G01*
%TO.C,JP5*%
X39649200Y-38289800D02*
X39649200Y-41089800D01*
X37649200Y-38289800D02*
X39649200Y-38289800D01*
X37649200Y-41089800D02*
X37649200Y-38289800D01*
X39649200Y-41089800D02*
X37649200Y-41089800D01*
%TO.C,TP22*%
X54069200Y-40350200D02*
G75*
G03*
X54069200Y-40350200I-1450000J0D01*
G01*
%TO.C,U12*%
X19614000Y-45785800D02*
X19614000Y-44985800D01*
X22734000Y-45785800D02*
X22734000Y-46585800D01*
X22734000Y-45785800D02*
X22734000Y-44985800D01*
X19614000Y-45785800D02*
X19614000Y-47585800D01*
%TO.C,U1*%
X92085200Y-29703000D02*
X93035200Y-29703000D01*
X93035200Y-29703000D02*
X93035200Y-30653000D01*
X82815200Y-39923000D02*
X82815200Y-38973000D01*
X83765200Y-39923000D02*
X82815200Y-39923000D01*
X93035200Y-39923000D02*
X93035200Y-38973000D01*
X83765200Y-29703000D02*
X82815200Y-29703000D01*
X82815200Y-29703000D02*
X82815200Y-30653000D01*
X92085200Y-39923000D02*
X93035200Y-39923000D01*
X82815200Y-30653000D02*
X81475200Y-30653000D01*
%TO.C,C24*%
X29003436Y-51369400D02*
X28787764Y-51369400D01*
X29003436Y-52089400D02*
X28787764Y-52089400D01*
%TO.C,TP8*%
X105377200Y-46852600D02*
G75*
G03*
X105377200Y-46852600I-1450000J0D01*
G01*
D10*
%TO.C,U7*%
X71380800Y-40265000D02*
X71380800Y-39740000D01*
X67080800Y-35965000D02*
X67605800Y-35965000D01*
X71380800Y-35965000D02*
X71380800Y-36490000D01*
X71380800Y-40265000D02*
X70855800Y-40265000D01*
X67080800Y-40265000D02*
X67080800Y-39740000D01*
X67080800Y-35965000D02*
X67080800Y-36490000D01*
X67080800Y-40265000D02*
X67605800Y-40265000D01*
D11*
%TO.C,D8*%
X110441400Y-34484400D02*
X108156400Y-34484400D01*
X110441400Y-35954400D02*
X110441400Y-34484400D01*
X108156400Y-35954400D02*
X110441400Y-35954400D01*
%TO.C,D5*%
X104523200Y-22238600D02*
X104523200Y-24788600D01*
X104523200Y-22238600D02*
X102823200Y-22238600D01*
X102823200Y-22238600D02*
X102823200Y-24788600D01*
%TO.C,C25*%
X21157436Y-52089400D02*
X20941764Y-52089400D01*
X21157436Y-51369400D02*
X20941764Y-51369400D01*
%TO.C,L1*%
X39250378Y-44159000D02*
X40049622Y-44159000D01*
X39250378Y-45279000D02*
X40049622Y-45279000D01*
%TO.C,U9*%
X40395600Y-28839000D02*
X37565600Y-28839000D01*
X40395600Y-35199000D02*
X39295600Y-35199000D01*
X41895600Y-35469000D02*
X40395600Y-35469000D01*
X41895600Y-28569000D02*
X40395600Y-28569000D01*
X40395600Y-28569000D02*
X40395600Y-28839000D01*
X40395600Y-35469000D02*
X40395600Y-35199000D01*
%TO.C,U4*%
X61933200Y-31833400D02*
X61933200Y-34833400D01*
X64133200Y-31833400D02*
X64133200Y-34033400D01*
%TO.C,C17*%
X39351436Y-49845400D02*
X39135764Y-49845400D01*
X39351436Y-50565400D02*
X39135764Y-50565400D01*
%TO.C,J5*%
X55844600Y-52304800D02*
X68604600Y-52304800D01*
X53244600Y-52304800D02*
X54574600Y-52304800D01*
X55844600Y-54964800D02*
X68604600Y-54964800D01*
X68604600Y-54964800D02*
X68604600Y-52304800D01*
X53244600Y-53634800D02*
X53244600Y-52304800D01*
X55844600Y-54964800D02*
X55844600Y-52304800D01*
%TO.C,R13*%
X42033058Y-53340500D02*
X41558542Y-53340500D01*
X42033058Y-54385500D02*
X41558542Y-54385500D01*
%TO.C,TP1*%
X93591600Y-18303000D02*
G75*
G03*
X93591600Y-18303000I-1450000J0D01*
G01*
%TO.C,D10*%
X14393800Y-53520200D02*
X14393800Y-55805200D01*
X15863800Y-55805200D02*
X15863800Y-53520200D01*
X14393800Y-55805200D02*
X15863800Y-55805200D01*
%TO.C,TP32*%
X98925600Y-47970200D02*
G75*
G03*
X98925600Y-47970200I-1450000J0D01*
G01*
%TO.C,TP5*%
X105377200Y-39639000D02*
G75*
G03*
X105377200Y-39639000I-1450000J0D01*
G01*
%TO.C,U6*%
X64032800Y-41269000D02*
X60722800Y-41269000D01*
X62372800Y-35449000D02*
X64012800Y-35449000D01*
%TO.C,TP34*%
X93591600Y-21960600D02*
G75*
G03*
X93591600Y-21960600I-1450000J0D01*
G01*
%TO.C,U8*%
X41260000Y-49275400D02*
X41030000Y-49275400D01*
X38270000Y-49275400D02*
X38040000Y-49275400D01*
X38040000Y-48300400D02*
X38040000Y-49275400D01*
X41260000Y-46025400D02*
X41260000Y-47030400D01*
X38270000Y-46055400D02*
X38040000Y-46055400D01*
X41260000Y-48300400D02*
X41260000Y-49275400D01*
X38040000Y-46055400D02*
X38040000Y-47030400D01*
%TO.C,TP6*%
X105377200Y-43245800D02*
G75*
G03*
X105377200Y-43245800I-1450000J0D01*
G01*
%TO.C,D7*%
X107471400Y-32858800D02*
X107471400Y-34328800D01*
X107471400Y-34328800D02*
X109756400Y-34328800D01*
X109756400Y-32858800D02*
X107471400Y-32858800D01*
%TO.C,C20*%
X38299836Y-27544200D02*
X38084164Y-27544200D01*
X38299836Y-28264200D02*
X38084164Y-28264200D01*
D10*
%TO.C,U2*%
X70118000Y-32189000D02*
X70118000Y-34389000D01*
X66718000Y-31814000D02*
X66718000Y-34764000D01*
D11*
%TO.C,TP25*%
X91712000Y-47970200D02*
G75*
G03*
X91712000Y-47970200I-1450000J0D01*
G01*
%TO.C,TP21*%
X54069200Y-36743400D02*
G75*
G03*
X54069200Y-36743400I-1450000J0D01*
G01*
%TO.C,TP16*%
X53612000Y-21859000D02*
G75*
G03*
X53612000Y-21859000I-1450000J0D01*
G01*
%TO.C,TP15*%
X49852800Y-21859000D02*
G75*
G03*
X49852800Y-21859000I-1450000J0D01*
G01*
%TO.C,D6*%
X103456400Y-35957400D02*
X103456400Y-33407400D01*
X101756400Y-35957400D02*
X103456400Y-35957400D01*
X101756400Y-35957400D02*
X101756400Y-33407400D01*
%TO.C,U10*%
X104150400Y-25676600D02*
X104150400Y-26936600D01*
X110160400Y-32496600D02*
X104150400Y-32496600D01*
X104150400Y-32496600D02*
X104150400Y-31236600D01*
X107910400Y-25676600D02*
X104150400Y-25676600D01*
%TO.C,R7*%
X61462500Y-32027258D02*
X61462500Y-31552742D01*
X60417500Y-32027258D02*
X60417500Y-31552742D01*
%TO.C,JP1*%
X62239600Y-22113000D02*
X61939600Y-22413000D01*
X64439600Y-25463000D02*
X62439600Y-25463000D01*
X64439600Y-21363000D02*
X64439600Y-25463000D01*
X61939600Y-21813000D02*
X61939600Y-22413000D01*
X62439600Y-25463000D02*
X62439600Y-21363000D01*
X62439600Y-21363000D02*
X64439600Y-21363000D01*
X62239600Y-22113000D02*
X61939600Y-21813000D01*
%TO.C,R11*%
X42800841Y-47639000D02*
X42493559Y-47639000D01*
X42800841Y-46879000D02*
X42493559Y-46879000D01*
%TO.C,JP2*%
X62239600Y-17257000D02*
X61939600Y-16957000D01*
X64439600Y-16507000D02*
X64439600Y-20607000D01*
X62439600Y-16507000D02*
X64439600Y-16507000D01*
X64439600Y-20607000D02*
X62439600Y-20607000D01*
X62239600Y-17257000D02*
X61939600Y-17557000D01*
X61939600Y-16957000D02*
X61939600Y-17557000D01*
X62439600Y-20607000D02*
X62439600Y-16507000D01*
%TO.C,U11*%
X30404800Y-45735000D02*
X30404800Y-46535000D01*
X27284800Y-45735000D02*
X27284800Y-44935000D01*
X30404800Y-45735000D02*
X30404800Y-44935000D01*
X27284800Y-45735000D02*
X27284800Y-47535000D01*
%TO.C,C23*%
X25109800Y-17829236D02*
X25109800Y-17613564D01*
X24389800Y-17829236D02*
X24389800Y-17613564D01*
%TO.C,C21*%
X108351200Y-24506836D02*
X108351200Y-24291164D01*
X107631200Y-24506836D02*
X107631200Y-24291164D01*
%TO.C,TP12*%
X79720000Y-23740000D02*
G75*
G03*
X79720000Y-23740000I-1450000J0D01*
G01*
%TO.C,C18*%
X37028000Y-32228436D02*
X37028000Y-32012764D01*
X36308000Y-32228436D02*
X36308000Y-32012764D01*
%TO.C,C19*%
X40998800Y-52883800D02*
X45208800Y-52883800D01*
X45208800Y-49863800D02*
X40998800Y-49863800D01*
X45208800Y-52883800D02*
X45208800Y-49863800D01*
%TO.C,R10*%
X42493559Y-46572200D02*
X42800841Y-46572200D01*
X42493559Y-45812200D02*
X42800841Y-45812200D01*
%TO.C,D1*%
X29430000Y-22179000D02*
X29430000Y-16779000D01*
X32730000Y-22179000D02*
X32730000Y-16779000D01*
X29430000Y-22179000D02*
X32730000Y-22179000D01*
%TO.C,C22*%
X101789200Y-24506836D02*
X101789200Y-24291164D01*
X102509200Y-24506836D02*
X102509200Y-24291164D01*
%TO.C,J4*%
X79441600Y-19582200D02*
X71761600Y-19582200D01*
X79441600Y-16922200D02*
X71761600Y-16922200D01*
X79441600Y-16922200D02*
X79441600Y-19582200D01*
X80711600Y-16922200D02*
X82041600Y-16922200D01*
X71761600Y-16922200D02*
X71761600Y-19582200D01*
X82041600Y-16922200D02*
X82041600Y-18252200D01*
%TO.C,C5*%
X36712564Y-26121800D02*
X36928236Y-26121800D01*
X36712564Y-26841800D02*
X36928236Y-26841800D01*
%TO.C,J3*%
X42073600Y-16440000D02*
X43403600Y-16440000D01*
X42073600Y-17770000D02*
X42073600Y-16440000D01*
X54893600Y-19100000D02*
X54893600Y-16440000D01*
X44673600Y-19100000D02*
X44673600Y-16440000D01*
X44673600Y-16440000D02*
X54893600Y-16440000D01*
X44673600Y-19100000D02*
X54893600Y-19100000D01*
%TD*%
M02*
