%TF.GenerationSoftware,KiCad,Pcbnew,(6.0.4)*%
%TF.CreationDate,2022-10-13T17:41:33-04:00*%
%TF.ProjectId,ece49022_team44_pcb,65636534-3930-4323-925f-7465616d3434,rev?*%
%TF.SameCoordinates,Original*%
%TF.FileFunction,Soldermask,Top*%
%TF.FilePolarity,Negative*%
%FSLAX46Y46*%
G04 Gerber Fmt 4.6, Leading zero omitted, Abs format (unit mm)*
G04 Created by KiCad (PCBNEW (6.0.4)) date 2022-10-13 17:41:33*
%MOMM*%
%LPD*%
G01*
G04 APERTURE LIST*
G04 Aperture macros list*
%AMRoundRect*
0 Rectangle with rounded corners*
0 $1 Rounding radius*
0 $2 $3 $4 $5 $6 $7 $8 $9 X,Y pos of 4 corners*
0 Add a 4 corners polygon primitive as box body*
4,1,4,$2,$3,$4,$5,$6,$7,$8,$9,$2,$3,0*
0 Add four circle primitives for the rounded corners*
1,1,$1+$1,$2,$3*
1,1,$1+$1,$4,$5*
1,1,$1+$1,$6,$7*
1,1,$1+$1,$8,$9*
0 Add four rect primitives between the rounded corners*
20,1,$1+$1,$2,$3,$4,$5,0*
20,1,$1+$1,$4,$5,$6,$7,0*
20,1,$1+$1,$6,$7,$8,$9,0*
20,1,$1+$1,$8,$9,$2,$3,0*%
%AMFreePoly0*
4,1,21,-0.125000,1.200000,0.125000,1.200000,0.125000,1.700000,0.375000,1.700000,0.375000,1.200000,0.825000,1.200000,0.825000,-1.200000,0.375000,-1.200000,0.375000,-1.700000,0.125000,-1.700000,0.125000,-1.200000,-0.125000,-1.200000,-0.125000,-1.700000,-0.375000,-1.700000,-0.375000,-1.200000,-0.825000,-1.200000,-0.825000,1.200000,-0.375000,1.200000,-0.375000,1.700000,-0.125000,1.700000,
-0.125000,1.200000,-0.125000,1.200000,$1*%
G04 Aperture macros list end*
%ADD10R,1.700000X1.700000*%
%ADD11O,1.700000X1.700000*%
%ADD12RoundRect,0.100000X0.100000X-0.130000X0.100000X0.130000X-0.100000X0.130000X-0.100000X-0.130000X0*%
%ADD13RoundRect,0.100000X0.130000X0.100000X-0.130000X0.100000X-0.130000X-0.100000X0.130000X-0.100000X0*%
%ADD14RoundRect,0.100000X-0.130000X-0.100000X0.130000X-0.100000X0.130000X0.100000X-0.130000X0.100000X0*%
%ADD15C,2.500000*%
%ADD16RoundRect,0.218750X0.256250X-0.218750X0.256250X0.218750X-0.256250X0.218750X-0.256250X-0.218750X0*%
%ADD17R,1.500000X1.000000*%
%ADD18R,0.450000X0.600000*%
%ADD19RoundRect,0.150000X0.587500X0.150000X-0.587500X0.150000X-0.587500X-0.150000X0.587500X-0.150000X0*%
%ADD20RoundRect,0.150000X-0.825000X-0.150000X0.825000X-0.150000X0.825000X0.150000X-0.825000X0.150000X0*%
%ADD21RoundRect,0.100000X-0.100000X0.130000X-0.100000X-0.130000X0.100000X-0.130000X0.100000X0.130000X0*%
%ADD22RoundRect,0.150000X0.150000X-0.512500X0.150000X0.512500X-0.150000X0.512500X-0.150000X-0.512500X0*%
%ADD23RoundRect,0.075000X-0.700000X-0.075000X0.700000X-0.075000X0.700000X0.075000X-0.700000X0.075000X0*%
%ADD24RoundRect,0.075000X-0.075000X-0.700000X0.075000X-0.700000X0.075000X0.700000X-0.075000X0.700000X0*%
%ADD25RoundRect,0.140000X0.140000X0.170000X-0.140000X0.170000X-0.140000X-0.170000X0.140000X-0.170000X0*%
%ADD26RoundRect,0.075000X-0.075000X0.350000X-0.075000X-0.350000X0.075000X-0.350000X0.075000X0.350000X0*%
%ADD27RoundRect,0.075000X-0.350000X-0.075000X0.350000X-0.075000X0.350000X0.075000X-0.350000X0.075000X0*%
%ADD28RoundRect,0.218750X0.218750X0.256250X-0.218750X0.256250X-0.218750X-0.256250X0.218750X-0.256250X0*%
%ADD29RoundRect,0.218750X-0.218750X-0.381250X0.218750X-0.381250X0.218750X0.381250X-0.218750X0.381250X0*%
%ADD30R,2.200000X1.200000*%
%ADD31R,6.400000X5.800000*%
%ADD32R,0.300000X0.800000*%
%ADD33RoundRect,0.200000X0.200000X0.275000X-0.200000X0.275000X-0.200000X-0.275000X0.200000X-0.275000X0*%
%ADD34RoundRect,0.087500X-0.287500X-0.087500X0.287500X-0.087500X0.287500X0.087500X-0.287500X0.087500X0*%
%ADD35R,0.240000X0.600000*%
%ADD36FreePoly0,270.000000*%
%ADD37RoundRect,0.218750X-0.218750X-0.256250X0.218750X-0.256250X0.218750X0.256250X-0.218750X0.256250X0*%
%ADD38R,0.400000X0.600000*%
%ADD39R,2.400000X1.500000*%
%ADD40R,2.000000X1.500000*%
%ADD41R,2.000000X3.800000*%
%ADD42RoundRect,0.200000X0.275000X-0.200000X0.275000X0.200000X-0.275000X0.200000X-0.275000X-0.200000X0*%
%ADD43RoundRect,0.135000X0.135000X0.185000X-0.135000X0.185000X-0.135000X-0.185000X0.135000X-0.185000X0*%
%ADD44RoundRect,0.140000X0.170000X-0.140000X0.170000X0.140000X-0.170000X0.140000X-0.170000X-0.140000X0*%
%ADD45RoundRect,0.250000X0.412500X0.925000X-0.412500X0.925000X-0.412500X-0.925000X0.412500X-0.925000X0*%
%ADD46RoundRect,0.135000X-0.135000X-0.185000X0.135000X-0.185000X0.135000X0.185000X-0.135000X0.185000X0*%
%ADD47R,1.800000X2.500000*%
%ADD48RoundRect,0.140000X-0.140000X-0.170000X0.140000X-0.170000X0.140000X0.170000X-0.140000X0.170000X0*%
%ADD49R,2.000000X2.000000*%
%ADD50C,2.000000*%
%ADD51C,3.200000*%
%ADD52C,0.990600*%
%ADD53RoundRect,0.250000X0.350000X0.625000X-0.350000X0.625000X-0.350000X-0.625000X0.350000X-0.625000X0*%
%ADD54O,1.200000X1.750000*%
%ADD55R,1.500000X1.050000*%
%ADD56O,1.500000X1.050000*%
%ADD57C,4.000000*%
%ADD58R,1.500000X1.500000*%
%ADD59C,1.500000*%
%ADD60C,0.650000*%
%ADD61O,2.100000X1.000000*%
%ADD62O,1.600000X1.000000*%
G04 APERTURE END LIST*
D10*
%TO.C,J2*%
X74793000Y-53634800D03*
D11*
X77333000Y-53634800D03*
X79873000Y-53634800D03*
X82413000Y-53634800D03*
X84953000Y-53634800D03*
X87493000Y-53634800D03*
%TD*%
D12*
%TO.C,C1*%
X29048000Y-37215800D03*
X29048000Y-36575800D03*
%TD*%
%TO.C,R3*%
X18634000Y-38231800D03*
X18634000Y-37591800D03*
%TD*%
D13*
%TO.C,C13*%
X66045600Y-45531800D03*
X65405600Y-45531800D03*
%TD*%
D12*
%TO.C,R18*%
X16805200Y-52252600D03*
X16805200Y-51612600D03*
%TD*%
D14*
%TO.C,C6*%
X91059600Y-42026600D03*
X91699600Y-42026600D03*
%TD*%
D15*
%TO.C,TP31*%
X86655200Y-47970200D03*
%TD*%
D13*
%TO.C,R16*%
X59045000Y-37755000D03*
X58405000Y-37755000D03*
%TD*%
D12*
%TO.C,C14*%
X66030400Y-33558200D03*
X66030400Y-32918200D03*
%TD*%
D15*
%TO.C,TP35*%
X93868800Y-47970200D03*
%TD*%
%TO.C,TP11*%
X74510000Y-23730000D03*
%TD*%
D16*
%TO.C,D9*%
X16805200Y-55082400D03*
X16805200Y-53507400D03*
%TD*%
D17*
%TO.C,JP3*%
X66335200Y-22113000D03*
X66335200Y-23413000D03*
X66335200Y-24713000D03*
%TD*%
D15*
%TO.C,TP27*%
X83048400Y-47970200D03*
%TD*%
D18*
%TO.C,D4*%
X109515200Y-24788600D03*
X109515200Y-22688600D03*
%TD*%
D12*
%TO.C,R2*%
X31029200Y-40670200D03*
X31029200Y-40030200D03*
%TD*%
D17*
%TO.C,JP4*%
X66335200Y-17287000D03*
X66335200Y-18587000D03*
X66335200Y-19887000D03*
%TD*%
D19*
%TO.C,Q1*%
X89246000Y-19593400D03*
X89246000Y-17693400D03*
X87371000Y-18643400D03*
%TD*%
D20*
%TO.C,U5*%
X67836800Y-41721800D03*
X67836800Y-42991800D03*
X67836800Y-44261800D03*
X67836800Y-45531800D03*
X72786800Y-45531800D03*
X72786800Y-44261800D03*
X72786800Y-42991800D03*
X72786800Y-41721800D03*
%TD*%
D13*
%TO.C,C10*%
X84740000Y-27599400D03*
X84100000Y-27599400D03*
%TD*%
D15*
%TO.C,TP7*%
X103927200Y-50459400D03*
%TD*%
D13*
%TO.C,R14*%
X28794000Y-21757400D03*
X28154000Y-21757400D03*
%TD*%
D21*
%TO.C,C12*%
X66080000Y-37625000D03*
X66080000Y-38265000D03*
%TD*%
D15*
%TO.C,TP2*%
X98136000Y-23891000D03*
%TD*%
D17*
%TO.C,JP5*%
X38649200Y-39039800D03*
X38649200Y-40339800D03*
%TD*%
D14*
%TO.C,C8*%
X84608000Y-42280600D03*
X85248000Y-42280600D03*
%TD*%
D13*
%TO.C,R19*%
X20884400Y-43245800D03*
X20244400Y-43245800D03*
%TD*%
D15*
%TO.C,TP22*%
X52619200Y-40350200D03*
%TD*%
D22*
%TO.C,U12*%
X20224000Y-46923300D03*
X21174000Y-46923300D03*
X22124000Y-46923300D03*
X22124000Y-44648300D03*
X20224000Y-44648300D03*
%TD*%
D23*
%TO.C,U1*%
X82250200Y-31063000D03*
X82250200Y-31563000D03*
X82250200Y-32063000D03*
X82250200Y-32563000D03*
X82250200Y-33063000D03*
X82250200Y-33563000D03*
X82250200Y-34063000D03*
X82250200Y-34563000D03*
X82250200Y-35063000D03*
X82250200Y-35563000D03*
X82250200Y-36063000D03*
X82250200Y-36563000D03*
X82250200Y-37063000D03*
X82250200Y-37563000D03*
X82250200Y-38063000D03*
X82250200Y-38563000D03*
D24*
X84175200Y-40488000D03*
X84675200Y-40488000D03*
X85175200Y-40488000D03*
X85675200Y-40488000D03*
X86175200Y-40488000D03*
X86675200Y-40488000D03*
X87175200Y-40488000D03*
X87675200Y-40488000D03*
X88175200Y-40488000D03*
X88675200Y-40488000D03*
X89175200Y-40488000D03*
X89675200Y-40488000D03*
X90175200Y-40488000D03*
X90675200Y-40488000D03*
X91175200Y-40488000D03*
X91675200Y-40488000D03*
D23*
X93600200Y-38563000D03*
X93600200Y-38063000D03*
X93600200Y-37563000D03*
X93600200Y-37063000D03*
X93600200Y-36563000D03*
X93600200Y-36063000D03*
X93600200Y-35563000D03*
X93600200Y-35063000D03*
X93600200Y-34563000D03*
X93600200Y-34063000D03*
X93600200Y-33563000D03*
X93600200Y-33063000D03*
X93600200Y-32563000D03*
X93600200Y-32063000D03*
X93600200Y-31563000D03*
X93600200Y-31063000D03*
D24*
X91675200Y-29138000D03*
X91175200Y-29138000D03*
X90675200Y-29138000D03*
X90175200Y-29138000D03*
X89675200Y-29138000D03*
X89175200Y-29138000D03*
X88675200Y-29138000D03*
X88175200Y-29138000D03*
X87675200Y-29138000D03*
X87175200Y-29138000D03*
X86675200Y-29138000D03*
X86175200Y-29138000D03*
X85675200Y-29138000D03*
X85175200Y-29138000D03*
X84675200Y-29138000D03*
X84175200Y-29138000D03*
%TD*%
D14*
%TO.C,C9*%
X84608000Y-43144200D03*
X85248000Y-43144200D03*
%TD*%
D25*
%TO.C,C24*%
X29375600Y-51729400D03*
X28415600Y-51729400D03*
%TD*%
D15*
%TO.C,TP8*%
X103927200Y-46852600D03*
%TD*%
D26*
%TO.C,U7*%
X70480800Y-36165000D03*
X69980800Y-36165000D03*
X69480800Y-36165000D03*
X68980800Y-36165000D03*
X68480800Y-36165000D03*
X67980800Y-36165000D03*
D27*
X67280800Y-36865000D03*
X67280800Y-37365000D03*
X67280800Y-37865000D03*
X67280800Y-38365000D03*
X67280800Y-38865000D03*
X67280800Y-39365000D03*
D26*
X67980800Y-40065000D03*
X68480800Y-40065000D03*
X68980800Y-40065000D03*
X69480800Y-40065000D03*
X69980800Y-40065000D03*
X70480800Y-40065000D03*
D27*
X71180800Y-39365000D03*
X71180800Y-38865000D03*
X71180800Y-38365000D03*
X71180800Y-37865000D03*
X71180800Y-37365000D03*
X71180800Y-36865000D03*
%TD*%
D28*
%TO.C,D8*%
X109743900Y-35219400D03*
X108168900Y-35219400D03*
%TD*%
D18*
%TO.C,D5*%
X103673200Y-22688600D03*
X103673200Y-24788600D03*
%TD*%
D21*
%TO.C,R20*%
X15140000Y-48710000D03*
X15140000Y-49350000D03*
%TD*%
D25*
%TO.C,C25*%
X21529600Y-51729400D03*
X20569600Y-51729400D03*
%TD*%
D29*
%TO.C,L1*%
X38587500Y-44719000D03*
X40712500Y-44719000D03*
%TD*%
D30*
%TO.C,U9*%
X38665600Y-29739000D03*
D31*
X44965600Y-32019000D03*
D30*
X38665600Y-34299000D03*
%TD*%
D13*
%TO.C,R12*%
X28747800Y-20131800D03*
X28107800Y-20131800D03*
%TD*%
D32*
%TO.C,U4*%
X62283200Y-34483400D03*
X62783200Y-34483400D03*
X63283200Y-34483400D03*
X63783200Y-34483400D03*
X63783200Y-31383400D03*
X63283200Y-31383400D03*
X62783200Y-31383400D03*
X62283200Y-31383400D03*
%TD*%
D21*
%TO.C,C16*%
X64760400Y-37642600D03*
X64760400Y-38282600D03*
%TD*%
D25*
%TO.C,C17*%
X39723600Y-50205400D03*
X38763600Y-50205400D03*
%TD*%
D10*
%TO.C,J5*%
X54574600Y-53634800D03*
D11*
X57114600Y-53634800D03*
X59654600Y-53634800D03*
X62194600Y-53634800D03*
X64734600Y-53634800D03*
X67274600Y-53634800D03*
%TD*%
D33*
%TO.C,R13*%
X42620800Y-53863000D03*
X40970800Y-53863000D03*
%TD*%
D15*
%TO.C,TP1*%
X92141600Y-18303000D03*
%TD*%
D12*
%TO.C,C3*%
X110734400Y-52546800D03*
X110734400Y-51906800D03*
%TD*%
D16*
%TO.C,D10*%
X15128800Y-55107700D03*
X15128800Y-53532700D03*
%TD*%
D15*
%TO.C,TP32*%
X97475600Y-47970200D03*
%TD*%
%TO.C,TP5*%
X103927200Y-39639000D03*
%TD*%
D34*
%TO.C,U6*%
X61172800Y-35969000D03*
X61172800Y-36769000D03*
X61172800Y-37569000D03*
X61172800Y-38369000D03*
X61172800Y-39169000D03*
X61172800Y-39969000D03*
X61172800Y-40769000D03*
X63572800Y-40769000D03*
X63572800Y-39969000D03*
X63572800Y-39169000D03*
X63572800Y-38369000D03*
X63572800Y-37569000D03*
X63572800Y-36769000D03*
X63572800Y-35969000D03*
%TD*%
D15*
%TO.C,TP34*%
X92141600Y-21960600D03*
%TD*%
D35*
%TO.C,U8*%
X40650000Y-46265400D03*
X40150000Y-46265400D03*
X39650000Y-46265400D03*
X39150000Y-46265400D03*
X38650000Y-46265400D03*
X38650000Y-49065400D03*
X39150000Y-49065400D03*
X39650000Y-49065400D03*
X40150000Y-49065400D03*
X40650000Y-49065400D03*
D36*
X39650000Y-47665400D03*
%TD*%
D15*
%TO.C,TP6*%
X103927200Y-43245800D03*
%TD*%
D37*
%TO.C,D7*%
X108168900Y-33593800D03*
X109743900Y-33593800D03*
%TD*%
D13*
%TO.C,R6*%
X85817400Y-17287000D03*
X85177400Y-17287000D03*
%TD*%
D25*
%TO.C,C20*%
X38672000Y-27904200D03*
X37712000Y-27904200D03*
%TD*%
D38*
%TO.C,U2*%
X67468000Y-34689000D03*
X68418000Y-34689000D03*
X69368000Y-34689000D03*
X69368000Y-31889000D03*
X68418000Y-31889000D03*
X67468000Y-31889000D03*
D39*
X68418000Y-33289000D03*
%TD*%
D15*
%TO.C,TP25*%
X90262000Y-47970200D03*
%TD*%
D14*
%TO.C,R15*%
X58400000Y-36815000D03*
X59040000Y-36815000D03*
%TD*%
D15*
%TO.C,TP21*%
X52619200Y-36743400D03*
%TD*%
%TO.C,TP16*%
X52162000Y-21859000D03*
%TD*%
%TO.C,TP15*%
X48402800Y-21859000D03*
%TD*%
D21*
%TO.C,R8*%
X87874400Y-25399800D03*
X87874400Y-26039800D03*
%TD*%
D18*
%TO.C,D6*%
X102606400Y-35507400D03*
X102606400Y-33407400D03*
%TD*%
D40*
%TO.C,U10*%
X109210400Y-31386600D03*
X109210400Y-29086600D03*
D41*
X102910400Y-29086600D03*
D40*
X109210400Y-26786600D03*
%TD*%
D42*
%TO.C,R7*%
X60940000Y-32615000D03*
X60940000Y-30965000D03*
%TD*%
D13*
%TO.C,R17*%
X28606000Y-43195000D03*
X27966000Y-43195000D03*
%TD*%
D17*
%TO.C,JP1*%
X63439600Y-22113000D03*
X63439600Y-23413000D03*
X63439600Y-24713000D03*
%TD*%
D43*
%TO.C,R11*%
X43157200Y-47259000D03*
X42137200Y-47259000D03*
%TD*%
D12*
%TO.C,R1*%
X31029200Y-29128000D03*
X31029200Y-28488000D03*
%TD*%
D17*
%TO.C,JP2*%
X63439600Y-17257000D03*
X63439600Y-18557000D03*
X63439600Y-19857000D03*
%TD*%
D13*
%TO.C,C4*%
X37343600Y-25465800D03*
X36703600Y-25465800D03*
%TD*%
D12*
%TO.C,R5*%
X85436000Y-26050400D03*
X85436000Y-25410400D03*
%TD*%
D14*
%TO.C,C7*%
X91059600Y-42890200D03*
X91699600Y-42890200D03*
%TD*%
D22*
%TO.C,U11*%
X27894800Y-46872500D03*
X28844800Y-46872500D03*
X29794800Y-46872500D03*
X29794800Y-44597500D03*
X27894800Y-44597500D03*
%TD*%
D44*
%TO.C,C23*%
X24749800Y-18201400D03*
X24749800Y-17241400D03*
%TD*%
D21*
%TO.C,R4*%
X102010000Y-52105000D03*
X102010000Y-52745000D03*
%TD*%
D13*
%TO.C,C11*%
X61240000Y-33755000D03*
X60600000Y-33755000D03*
%TD*%
D44*
%TO.C,C21*%
X107991200Y-24879000D03*
X107991200Y-23919000D03*
%TD*%
D15*
%TO.C,TP12*%
X78270000Y-23740000D03*
%TD*%
D44*
%TO.C,C18*%
X36668000Y-32600600D03*
X36668000Y-31640600D03*
%TD*%
D45*
%TO.C,C19*%
X44286300Y-51373800D03*
X41211300Y-51373800D03*
%TD*%
D12*
%TO.C,R9*%
X86655200Y-26039800D03*
X86655200Y-25399800D03*
%TD*%
D14*
%TO.C,C15*%
X60641000Y-34863800D03*
X61281000Y-34863800D03*
%TD*%
D46*
%TO.C,R10*%
X42137200Y-46192200D03*
X43157200Y-46192200D03*
%TD*%
D12*
%TO.C,C2*%
X16500400Y-35935200D03*
X16500400Y-35295200D03*
%TD*%
D47*
%TO.C,D1*%
X31080000Y-20779000D03*
X31080000Y-16779000D03*
%TD*%
D44*
%TO.C,C22*%
X102149200Y-24879000D03*
X102149200Y-23919000D03*
%TD*%
D10*
%TO.C,J4*%
X80711600Y-18252200D03*
D11*
X78171600Y-18252200D03*
X75631600Y-18252200D03*
X73091600Y-18252200D03*
%TD*%
D48*
%TO.C,C5*%
X36340400Y-26481800D03*
X37300400Y-26481800D03*
%TD*%
D10*
%TO.C,J3*%
X43403600Y-17770000D03*
D11*
X45943600Y-17770000D03*
X48483600Y-17770000D03*
X51023600Y-17770000D03*
X53563600Y-17770000D03*
%TD*%
D49*
%TO.C,SW1*%
X31017790Y-33227400D03*
D50*
X31017790Y-38227400D03*
X31017790Y-35727400D03*
D51*
X23517790Y-30127400D03*
X23517790Y-41327400D03*
D50*
X16517790Y-38227400D03*
X16517790Y-33227400D03*
%TD*%
D52*
%TO.C,J1*%
X103168190Y-17591800D03*
X103168190Y-19623800D03*
X110788190Y-18607800D03*
%TD*%
D53*
%TO.C,J8*%
X22123200Y-49076200D03*
D54*
X20123200Y-49076200D03*
%TD*%
D55*
%TO.C,Q2*%
X27172800Y-23789400D03*
D56*
X27172800Y-25059400D03*
X27172800Y-26329400D03*
%TD*%
D57*
%TO.C,U3*%
X35983600Y-18474200D03*
X97183600Y-52574200D03*
X97183600Y-18474200D03*
X35983600Y-52574200D03*
D58*
X34483600Y-45684200D03*
D59*
X34483600Y-43144200D03*
X34483600Y-40604200D03*
X34483600Y-38064200D03*
X34483600Y-35524200D03*
X34483600Y-32984200D03*
X34483600Y-30444200D03*
X34483600Y-27904200D03*
X34483600Y-25364200D03*
X98003600Y-40604200D03*
X98003600Y-38064200D03*
X98003600Y-35524200D03*
X98003600Y-32984200D03*
X98003600Y-30444200D03*
%TD*%
D60*
%TO.C,J6*%
X21970000Y-17648200D03*
X21970000Y-23428200D03*
D61*
X22470000Y-24858200D03*
D62*
X18290000Y-16218200D03*
D61*
X22470000Y-16218200D03*
D62*
X18290000Y-24858200D03*
%TD*%
D53*
%TO.C,J7*%
X29794000Y-49076200D03*
D54*
X27794000Y-49076200D03*
%TD*%
M02*
