%TF.GenerationSoftware,KiCad,Pcbnew,(6.0.4)*%
%TF.CreationDate,2022-10-13T17:41:33-04:00*%
%TF.ProjectId,ece49022_team44_pcb,65636534-3930-4323-925f-7465616d3434,rev?*%
%TF.SameCoordinates,Original*%
%TF.FileFunction,Soldermask,Bot*%
%TF.FilePolarity,Negative*%
%FSLAX46Y46*%
G04 Gerber Fmt 4.6, Leading zero omitted, Abs format (unit mm)*
G04 Created by KiCad (PCBNEW (6.0.4)) date 2022-10-13 17:41:33*
%MOMM*%
%LPD*%
G01*
G04 APERTURE LIST*
G04 Aperture macros list*
%AMRoundRect*
0 Rectangle with rounded corners*
0 $1 Rounding radius*
0 $2 $3 $4 $5 $6 $7 $8 $9 X,Y pos of 4 corners*
0 Add a 4 corners polygon primitive as box body*
4,1,4,$2,$3,$4,$5,$6,$7,$8,$9,$2,$3,0*
0 Add four circle primitives for the rounded corners*
1,1,$1+$1,$2,$3*
1,1,$1+$1,$4,$5*
1,1,$1+$1,$6,$7*
1,1,$1+$1,$8,$9*
0 Add four rect primitives between the rounded corners*
20,1,$1+$1,$2,$3,$4,$5,0*
20,1,$1+$1,$4,$5,$6,$7,0*
20,1,$1+$1,$6,$7,$8,$9,0*
20,1,$1+$1,$8,$9,$2,$3,0*%
G04 Aperture macros list end*
%ADD10R,1.700000X1.700000*%
%ADD11O,1.700000X1.700000*%
%ADD12C,2.500000*%
%ADD13RoundRect,0.218750X0.256250X-0.218750X0.256250X0.218750X-0.256250X0.218750X-0.256250X-0.218750X0*%
%ADD14R,2.000000X2.000000*%
%ADD15C,2.000000*%
%ADD16C,3.200000*%
%ADD17C,0.990600*%
%ADD18C,0.787400*%
%ADD19R,0.760000X1.600000*%
%ADD20RoundRect,0.250000X0.350000X0.625000X-0.350000X0.625000X-0.350000X-0.625000X0.350000X-0.625000X0*%
%ADD21O,1.200000X1.750000*%
%ADD22R,1.500000X1.050000*%
%ADD23O,1.500000X1.050000*%
%ADD24C,4.000000*%
%ADD25R,1.500000X1.500000*%
%ADD26C,1.500000*%
%ADD27C,0.650000*%
%ADD28R,1.150000X0.300000*%
%ADD29O,2.100000X1.000000*%
%ADD30O,1.600000X1.000000*%
%ADD31R,1.600000X1.400000*%
G04 APERTURE END LIST*
D10*
%TO.C,J2*%
X74793000Y-53634800D03*
D11*
X77333000Y-53634800D03*
X79873000Y-53634800D03*
X82413000Y-53634800D03*
X84953000Y-53634800D03*
X87493000Y-53634800D03*
%TD*%
D10*
%TO.C,J5*%
X54574600Y-53634800D03*
D11*
X57114600Y-53634800D03*
X59654600Y-53634800D03*
X62194600Y-53634800D03*
X64734600Y-53634800D03*
X67274600Y-53634800D03*
%TD*%
D10*
%TO.C,J4*%
X80711600Y-18252200D03*
D11*
X78171600Y-18252200D03*
X75631600Y-18252200D03*
X73091600Y-18252200D03*
%TD*%
D10*
%TO.C,J3*%
X43403600Y-17770000D03*
D11*
X45943600Y-17770000D03*
X48483600Y-17770000D03*
X51023600Y-17770000D03*
X53563600Y-17770000D03*
%TD*%
D12*
%TO.C,TP18*%
X55667200Y-22570200D03*
%TD*%
D13*
%TO.C,D2*%
X28387600Y-17464900D03*
X28387600Y-15889900D03*
%TD*%
D14*
%TO.C,SW1*%
X31017790Y-33227400D03*
D15*
X31017790Y-38227400D03*
X31017790Y-35727400D03*
D16*
X23517790Y-30127400D03*
X23517790Y-41327400D03*
D15*
X16517790Y-38227400D03*
X16517790Y-33227400D03*
%TD*%
D12*
%TO.C,TP14*%
X78270000Y-23740000D03*
%TD*%
%TO.C,TP20*%
X109007200Y-45481000D03*
%TD*%
D17*
%TO.C,J1*%
X103168190Y-17591800D03*
X103168190Y-19623800D03*
X110788190Y-18607800D03*
D18*
X109518190Y-19242800D03*
X108248190Y-19242800D03*
X106978190Y-19242800D03*
X105708190Y-19242800D03*
X104438190Y-19242800D03*
X104438190Y-17972800D03*
X105708190Y-17972800D03*
X106978190Y-17972800D03*
X108248190Y-17972800D03*
X109518190Y-17972800D03*
%TD*%
D19*
%TO.C,SW3*%
X30876800Y-16271000D03*
X30876800Y-23891000D03*
%TD*%
D12*
%TO.C,TP19*%
X109108800Y-39740600D03*
%TD*%
D20*
%TO.C,J8*%
X22123200Y-49076200D03*
D21*
X20123200Y-49076200D03*
%TD*%
D22*
%TO.C,Q2*%
X27172800Y-23789400D03*
D23*
X27172800Y-25059400D03*
X27172800Y-26329400D03*
%TD*%
D12*
%TO.C,TP17*%
X55667200Y-26227800D03*
%TD*%
D24*
%TO.C,U3*%
X35983600Y-18474200D03*
X97183600Y-52574200D03*
X97183600Y-18474200D03*
X35983600Y-52574200D03*
D25*
X34483600Y-45684200D03*
D26*
X34483600Y-43144200D03*
X34483600Y-40604200D03*
X34483600Y-38064200D03*
X34483600Y-35524200D03*
X34483600Y-32984200D03*
X34483600Y-30444200D03*
X34483600Y-27904200D03*
X34483600Y-25364200D03*
X98003600Y-40604200D03*
X98003600Y-38064200D03*
X98003600Y-35524200D03*
X98003600Y-32984200D03*
X98003600Y-30444200D03*
%TD*%
D13*
%TO.C,D3*%
X26101600Y-17464900D03*
X26101600Y-15889900D03*
%TD*%
D27*
%TO.C,J6*%
X21970000Y-17648200D03*
X21970000Y-23428200D03*
D28*
X23035000Y-23888200D03*
X23035000Y-23088200D03*
X23035000Y-21788200D03*
X23035000Y-20788200D03*
X23035000Y-20288200D03*
X23035000Y-19288200D03*
X23035000Y-17988200D03*
X23035000Y-17188200D03*
X23035000Y-17488200D03*
X23035000Y-18288200D03*
X23035000Y-18788200D03*
X23035000Y-19788200D03*
X23035000Y-21288200D03*
X23035000Y-22288200D03*
X23035000Y-22788200D03*
X23035000Y-23588200D03*
D29*
X22470000Y-24858200D03*
D30*
X18290000Y-16218200D03*
D29*
X22470000Y-16218200D03*
D30*
X18290000Y-24858200D03*
%TD*%
D12*
%TO.C,TP13*%
X74500000Y-23740000D03*
%TD*%
D20*
%TO.C,J7*%
X29794000Y-49076200D03*
D21*
X27794000Y-49076200D03*
%TD*%
D31*
%TO.C,SW2*%
X110721200Y-50089000D03*
X102721200Y-50089000D03*
X102721200Y-54589000D03*
X110721200Y-54589000D03*
%TD*%
M02*
